<?xml version="1.0" encoding="utf-8"?>
<!--Designed by Vexels.com - 2018 All Rights Reserved - https://vexels.com/terms-and-conditions/-->
<svg version="1.1" id="Layer_1" xmlns="http://www.w3.org/2000/svg" xmlns:xlink="http://www.w3.org/1999/xlink" x="0px" y="0px"
	 viewBox="0 0 1200 1200" enable-background="new 0 0 1200 1200" xml:space="preserve">
<g>
	<g>
		<path fill="#FFFFFF" d="M967.604,407.378c-2.268-9.399-6.484-17.866-12.531-25.165c-1.272-1.537-2.635-3.448-4.076-5.471
			c-1.461-2.048-3.116-4.369-4.963-6.698c-2.548-3.21-5.535-6.36-9.137-9.635c-5.31-4.828-12.264-7.486-19.577-7.486
			c-5.727,0-11.26,1.62-15.988,4.68c-1.232,0.795-2.435,1.647-3.633,2.506c-0.657,0.471-1.544,1.107-1.94,1.348
			c-0.875,0.414-2.606,1.225-3.729,1.636c-5.036-1.478-9.709-1.806-13.195-2.051c-1.007-0.071-2.016-0.134-3.011-0.252l-7.794-0.932
			l-6.718,4.063c-0.292,0.177-0.593,0.333-0.887,0.493c-1.844,1.007-4.633,2.528-7.529,5.056c-2.299,2.008-4.613,4.003-6.927,5.996
			c-7.215,6.217-14.674,12.645-21.849,19.65l-0.434,0.425c-15.122,14.768-29.402,28.717-44.938,41.464
			c-2.403,1.973-4.419,3.93-6.197,5.657c-0.644,0.624-1.285,1.25-1.94,1.861c-3.479,3.25-6.936,6.522-10.393,9.795
			c-8.008,7.581-15.57,14.741-23.452,21.694c-3.571,3.148-7.486,6.2-11.634,9.432c-6.644,5.178-13.505,10.523-20.071,17.11
			l-0.073,0.05c-0.891,0.592-2.112,1.404-3.481,2.494c-6.437,5.119-12.863,10.252-19.292,15.385l-7.197,5.747
			c-1.68-0.293-2.862-0.643-3.693-1.08c-2.982-1.573-6.266-3.05-10.026-4.515c-3.375-1.316-6.93-1.984-10.569-1.984
			c-0.595,0-1.179,0.044-1.766,0.078c1.199-2.78,2.339-5.49,3.414-8.084c3.951-9.527,7.034-18.728,9.433-28.138
			c1.557-6.12,2.259-12.145,2.129-18.328c1.018-0.417,2.043-0.872,3.072-1.372c8.217-3.989,15.872-9.561,23.403-17.03
			c4.736-4.695,10.571-11.318,13.69-20.922c0.844-2.595,3.399-6.042,6.168-9.642c3.631-4.722,7.13-7.22,11.707-8.353
			c8.992-2.229,17.08-5.448,24.898-8.562l2.905-1.154c4.112-1.625,16.269-6.434,23.749-19.211c0.096-0.092,1.196-1.156,1.633-1.594
			c4.764-4.784,8.511-10.535,11.353-17.451c13.861-0.159,26.39-5.597,38.276-16.612c8.544-7.916,19.102-19.011,24.951-34.664
			c0.559-1.492,1.519-3.417,2.537-5.454c0.604-1.204,1.203-2.409,1.778-3.614c1.711-3.592,3.419-6.252,5.377-8.373
			c3.346-3.627,6.219-7.364,8.344-10.21c6.319-8.456,7.591-19.433,3.392-29.384c-2.655-6.28-6.533-11.518-11.525-15.57
			c-7.945-6.446-20.347-15.614-36.258-20.8c-2.495-0.812-4.773-1.371-6.782-1.864c-1.495-0.368-3.04-0.746-3.873-1.057
			c-5.063-1.884-10.041-3.036-14.812-3.767c1.018-8.755,0.045-16.659-1.085-23.06c-1.597-9.05-5.381-17.082-11.251-23.872
			c-4.029-4.662-14.144-16.367-31.075-18.382c-4.929-7.964-11.734-13.096-17.492-16.821c-5.86-3.796-12.509-5.801-19.223-5.801
			c-1.688,0-3.368,0.124-5.032,0.37c-0.902-2.114-1.842-4.262-2.844-6.435c-3.477-7.529-9.25-13.371-17.147-17.357
			c-8.03-4.061-16.521-6.119-25.408-6.119c-3.174,0.01-6.602,0.068-10.228,0.4c-9.859-12.463-22.336-14.446-29.266-14.446
			c-1.653,0-3.35,0.106-5.043,0.314c-4.31,0.528-7.925,1.64-10.567,2.452c-0.998,0.308-2.132,0.657-2.646,0.757
			c-9.892,1.941-18.94,6.089-28.475,13.053c-1.815,1.328-3.82,2.641-5.941,3.981c-7.916-2.528-16.097-5.142-24.02-7.783
			c-5.032-1.676-10.288-2.527-15.625-2.527c-0.733,0-1.47,0.017-2.212,0.049c-5.883-6.287-12.208-11.914-18.396-17.418l-1.103-0.982
			c-5.851-5.211-12.224-9.538-18.94-12.859c-5.727-2.833-11.313-4.34-17.069-4.604c-0.584-0.027-1.096-0.09-1.55-0.137
			c-1.252-0.13-2.811-0.292-4.671-0.292c-9.248,0-21.544,4.025-27.669,23.178c-0.247,0.559-1.02,1.879-1.59,2.852
			c-0.96,1.643-2.156,3.686-3.279,6.012c-0.688,1.43-1.414,2.851-2.138,4.273c-2.611,5.123-5.566,10.93-7.573,17.748
			c-1.973,6.713-3.343,13.135-4.123,19.361c-0.715-0.133-1.432-0.259-2.147-0.381c-9.025-1.527-18.323-3.379-27.315-5.171
			c-4.092-0.815-8.181-1.63-12.226-2.412c-1.397-0.274-2.537-0.379-3.21-0.433c-2.154-0.244-3.983-0.358-5.736-0.358
			c-8.103,0-22.671,2.878-29.186,22.154c-4.19,12.407-6.725,24.111-7.749,35.761c-0.363,4.087-0.196,8.373,0.494,12.724
			c1.272,8.052,2.642,15.938,4.308,25.303c0.194,1.093,0.43,2.174,0.704,3.238c-2.446-0.326-4.584-0.381-6.214-0.381
			c-1.156,0-2.323,0.035-3.49,0.072c-0.664,0.022-1.33,0.049-1.987,0.049h-0.258c-0.316-0.022-0.63-0.063-0.944-0.099
			c-1.207-0.135-2.417-0.256-3.64-0.319c-1.089-0.056-2.176-0.084-3.256-0.084c-9.282,0-18.432,2.034-27.194,6.043
			c-9.426,4.312-17.169,11.493-23.014,21.351c-2.319,3.915-5.072,10.121-5.012,17.46c0.013,1.465-0.058,3.173-0.136,4.98
			c-0.236,5.608-0.532,12.587,1.261,20.331c0.953,4.12,1.78,8.332,2.644,12.773c-0.16,0.245-0.316,0.487-0.468,0.724
			c-0.862,1.332-1.751,2.71-2.33,3.404c-6.326,7.577-13.175,15.975-21.555,26.434c-6.765,8.445-10.825,17.479-14.086,24.733
			c-3.199,7.11-2.668,13.8-2.415,17.025c0.223,2.792,0.751,5.154,1.098,6.718c0.062,0.275,0.129,0.549,0.183,0.825
			c0.748,8.384,3.593,16.369,8.451,23.735c0.993,1.508,1.951,3.043,2.909,4.575c1.608,2.576,3.265,5.227,5.163,7.96
			c-3.484,8.29-4.179,16.307-4.702,22.347c-0.212,2.425-0.41,4.713-0.733,6.465c-0.773,4.161-0.535,8.604,0.691,12.85
			c0.292,1.018,0.557,2.048,0.826,3.078c0.92,3.542,2.067,7.949,4.11,12.521c10.072,22.533,28.934,36.455,53.11,39.206
			c2.853,0.324,5.809,0.476,9.308,0.476c1.544,0,3.087-0.03,4.629-0.068c0.751-0.019,1.497-0.045,2.239-0.075
			c0.8,1.979,1.581,3.728,2.406,5.391c0.575,1.162,1.138,2.331,1.702,3.499c3.74,7.759,7.979,16.553,15.625,24.635
			c5.925,6.261,16.652,17.595,34.05,18.921c0.062,0.02,0.123,0.04,0.183,0.059c7.157,2.282,14.565,3.44,22.016,3.44
			c5.205,0,10.498-0.567,15.81-1.688c10.014,10.043,23.441,15.359,39.993,15.82c-0.675,2.716-1.354,5.567-2.051,8.603
			c-1.236,5.395-0.655,10.07-0.343,12.583l0.091,0.756c1.241,12.181,12.213,22.766,24.466,23.599
			c1.704,0.115,3.415,0.15,5.125,0.177l0.782,0.012c4.406,0.077,9.088,0.932,14.137,2.134c0.521,2.955,1.169,5.672,1.762,8.158
			c0.744,3.126,1.388,5.827,1.532,7.925c0.657,9.533,5.938,18.362,13.555,24.376c-3.658-2.645-7.191-3.675-8.755-4.107
			c-8.126-2.497-15.837-3.22-22.962-3.626l-1.321-0.075l-1.087,0.063l-0.844-0.002c-2.504,0-5.874,0.159-9.738,1.399
			c-9.402,3.013-19.334,6.619-28.335,14.545c-1.721,1.516-3.24,3.146-4.595,4.852c0.703-9.041,0.41-17.777-0.042-26.155
			c-0.359-6.598-2.123-13.104-5.237-19.325c-0.408-0.813-0.757-1.655-1.12-2.491c-0.276-0.637-0.566-1.307-0.88-2.01
			c0.463-0.44,0.933-0.875,1.401-1.312c1.013-0.948,2.027-1.898,3.032-2.877c5.493-5.359,9.07-12.296,10.636-20.636
			c2.746-14.683-6.308-29.786-20.604-34.38c-3.88-1.248-7.816-1.882-11.698-1.882c-3.392,0-6.758,0.482-10.012,1.438
			c-10.527,3.095-18.96,9.341-24.386,18.061c-2.005,3.217-4.092,6.638-6.092,10.232c-3.361-0.202-7.199-0.367-11.104-0.367
			c-13.701,0-25.101,2.046-35.523,6.396c-6.95,1.052-13.307,4.288-18.917,9.632c-0.806,0.765-1.59,1.556-2.372,2.348
			c-0.577,0.585-1.368,1.387-1.677,1.643c-7.676,6.378-13.396,14.42-17.485,24.586c-10.041,24.965-10.663,28.405-9.484,52.591
			l0.125,2.555c1.013,21.09,4.448,41.283,10.21,60.017c0.927,3.007,1.809,6.025,2.695,9.044c1.158,3.951,2.316,7.903,3.555,11.832
			c4.332,13.768,15.951,22.665,29.593,22.665c0,0,0,0,0.002,0c5.551,0,11.041-1.449,16.318-4.309
			c3.624-1.965,6.889-4.095,9.767-5.975c0.94-0.612,1.878-1.226,2.827-1.83c1.399-0.89,2.78-1.808,4.161-2.727
			c2.116-1.408,4.112-2.737,5.885-3.73c8.106-4.543,15.042-10.036,21.163-14.882l1.354-1.07c0.996-0.787,1.969-1.613,2.938-2.442
			c0.613-0.526,1.452-1.245,1.677-1.407c13.253-8.37,22.492-19.479,28.288-27.105c6.319-8.315,11.214-17.407,14.865-27.567
			c0.255,1.005,0.542,2.011,0.892,3.014c0.134,0.382,0.252,0.767,0.372,1.153c0.229,0.725,0.461,1.45,0.693,2.129
			c2.577,7.571,7.838,13.544,15.211,17.269c5.19,2.624,10.54,3.954,15.899,3.955c0,0,0,0,0.002,0c0.728,0,1.45-0.041,2.17-0.09
			c-1.475,1.46-2.942,2.931-4.42,4.387c-0.539,0.532-1.107,1.036-1.671,1.545c-0.858,0.773-1.711,1.549-2.539,2.345l-2.437,2.337
			c-3.599,3.453-7.199,6.905-10.749,10.417l-1.537,1.525c-3.628,3.607-6.76,6.722-9.974,9.034
			c-6.468,4.652-12.44,9.867-17.75,15.498c-10.816,11.475-19.519,21.197-27.377,30.597c-8.729,10.435-17.92,20.313-27.649,30.771
			c-4.317,4.637-8.631,9.276-12.895,13.956c-1.43,1.568-3.361,3.317-5.406,5.169c-1.869,1.693-3.989,3.613-6.094,5.732
			c-4.257,4.281-8.322,8.636-12.255,12.845c-5.321,5.699-10.349,11.081-15.605,16.071c-4.522,4.29-7.816,8.809-10.723,12.798
			c-0.55,0.757-1.103,1.513-1.662,2.265c-3.718,4.993-9.152,15.597-3.775,30.549c3.787,10.497,14.244,17.828,25.43,17.828
			c3.887,0,7.749-0.914,11.164-2.639c2.011-1.015,4.056-1.979,6.099-2.947c5.814-2.751,12.402-5.869,18.748-10.158l2.691-1.814
			c11.433-7.702,23.254-15.668,34.077-26.384c11.779-6.734,20.813-15.469,27.368-22.328c3.406-3.565,5.998-6.007,8.384-7.161
			c5.348-2.586,10.4-6.286,15.017-10.997c3.593-3.663,8.034-7.163,12.739-10.87c3.178-2.505,6.466-5.095,9.781-7.954
			c1.731-1.495,3.64-3.018,5.66-4.63c3.134-2.499,6.373-5.084,9.665-8.111c2.882-2.651,5.263-4.69,7.518-6.026l0.597-0.351
			c2.063-1.207,5.176-3.031,8.273-5.9c2.289-2.125,4.925-4.186,7.726-6.263c-0.162,1.899-0.209,3.876-0.084,5.93
			c0.63,13.49,8.342,26.37,19.28,32.144c6.658,3.514,13.503,5.296,20.343,5.296c0.535,0,1.067-0.01,1.586-0.031
			c6.059-0.243,12.077-2.333,16.933-5.876c1-0.728,1.948-1.499,2.849-2.304c1.734,5.457,3.674,10.927,5.959,16.383
			c0.722,1.725,1.379,3.948,2.045,6.358c-1.51,4.155-3.009,8.272-4.513,12.382c-6.041,16.494-0.223,30.265,15.968,37.786
			c0,0,2.332,1.098,2.898,1.362c1.194,5.348,2.559,10.5,3.893,15.532c1.143,4.31,2.221,8.38,3.159,12.433
			c0.869,3.753,1.637,7.584,2.452,11.64c-0.615,0.931-1.229,1.861-1.846,2.791c-2.345,3.547-4.693,7.094-6.999,10.677
			c-2.343,3.645-4.424,7.297-6.174,10.409c-6.141,10.89-5.016,23.688,2.933,33.393c2.637,3.223,5.303,6.424,7.97,9.624
			c6.789,8.148,13.217,15.863,19.129,23.886c0.817,8.983,1.735,18.903,2.804,28.645c0.813,7.434,1.775,14.174,2.94,20.609
			c0.815,4.496,2.147,8.47,3.216,11.664l0.577,1.735c3.851,11.774,15.28,19.998,27.794,19.998c1.029,0,2.067-0.059,3.087-0.174
			l0.341-0.038c2.414-0.267,6.914-0.765,11.721-3.103c4.914-2.387,9.638-4.895,14.206-7.32l1.403-0.745
			c3.909-2.068,6.439-4.715,7.595-5.924c9.901-10.302,10.224-20.884,8.751-27.956c-0.559-2.672-1.094-5.348-1.628-8.025
			l-0.964-4.803c-0.539-2.651-1.109-5.297-1.682-7.943c-1.185-5.487-2.305-10.672-3.081-15.716
			c-0.858-5.589-1.501-11.264-2.161-17.231c1.933,3.208,3.675,6.335,5.047,9.422c4.412,9.909,14.456,16.313,25.586,16.313
			c4.054,0,8.146-0.871,11.839-2.524c8.903-3.988,15.685-9.53,21.341-14.408c7.58-6.536,10.99-16.582,9.123-26.869
			c-1.931-10.643-5.395-24.506-15.122-37.344c-3.112-4.107-6.05-8.74-9.159-13.645c-0.978-1.542-1.956-3.085-2.945-4.622
			c0.06-0.689,0.129-1.364,0.185-1.643c1.615-7.793,2.548-16.193,2.936-26.44c0.071-1.919,0.2-4.382,0.559-6.403
			c0.991-5.556,1.236-16.354-8.235-26.224c-5.252-5.481-11.284-9.264-17.924-11.243c-5.128-1.529-10.279-4.075-15.946-7.111
			l-1.949-4.196c-3.849-8.296-7.818-16.852-11.914-25.312c1.619-3.042,2.265-5.776,2.573-7.265l1.495-5.312l-1.524-5.939
			c-1.757-6.857-6.29-16.555-17.888-23.814c-1.887-1.183-3.782-2.355-5.618-3.49c-1.123-2.11-2.114-4.01-2.982-5.849
			c0,0-0.724-1.5-0.833-1.726c-0.302-3.132-0.774-6.06-1.252-8.773c5.233,1.85,9.94,2.335,12.708,2.613
			c0.837,0.086,1.691,0.129,2.55,0.129c3.898,0,7.812-0.894,11.636-2.663c12.73-5.89,20.731-19.875,19.024-33.242
			c-0.597-4.692-2.412-18.966-13.681-30.44c-14.79-15.056-32.783-19.074-46.807-20.893l-1.328-0.172l-0.166-0.002
			c1.374-0.968,2.749-1.928,4.12-2.914c3.083-2.216,6.119-4.505,9.155-6.795c5.203-3.927,10.119-7.636,15.064-10.772
			c11.03-6.996,21.14-14.466,31.95-22.685c5.085,1.75,10.774,3.192,16.982,3.84c0.853,0.284,2.633,1.116,3.261,1.41
			c2.368,1.106,4.662,2.442,6.809,3.969c6.132,4.357,13.048,6.566,20.561,6.566c4.072,0,8.148-0.639,12.828-2.012
			c11.375-3.338,19.664-15.283,18.873-27.164c-0.143-2.188-0.352-4.372-0.566-6.555l-0.127-1.305
			c-0.185-1.929-0.408-3.857-0.63-5.785c-0.394-3.386-0.764-6.583-0.835-9.362c-0.082-3.172-0.033-5.024,0.033-6.082
			c1.125-1.091,2.978-2.73,4.731-4.279c1.434-1.27,2.88-2.531,4.323-3.793c5.058-4.418,10.288-8.988,15.385-14.066
			c9.787-9.758,17.991-17.301,25.82-23.739c5.809-4.779,12.647-10.508,19.312-16.777c8.092-7.614,16.198-15.4,24.036-22.93
			c5.626-5.404,11.253-10.807,16.899-16.174c0.88-0.835,2.109-1.845,3.41-2.915c2.882-2.367,6.471-5.313,9.816-9.229
			c3.686-4.317,8.257-8.458,13.095-12.841c2.294-2.079,4.589-4.161,6.836-6.288c2.753-2.606,5.74-5.179,8.903-7.902
			c5.275-4.542,10.732-9.239,16.02-14.862c6.317-6.72,11.162-14.118,14.806-22.61c2.47-5.749,3.622-11.365,3.452-16.802
			c4.981-5.531,8.894-12.658,11.698-21.335l1.976-6.116L967.604,407.378z M560.586,777.079c0.302-0.233,0.604-0.465,0.909-0.695
			c-0.252,0.262-0.497,0.521-0.767,0.809C560.681,777.154,560.632,777.117,560.586,777.079z"/>
		<path fill="#FFFFFF" d="M884.929,856.612c-1.475-24.348-8.867-47.348-21.973-68.362c-1.503-2.411-3.043-4.571-4.399-6.475
			c-1.624-2.279-3.159-4.431-3.838-5.933l-2.038-4.508l-3.727-3.258c-1.158-1.013-2.448-2.271-3.813-3.603
			c-4.279-4.173-9.607-9.366-17.127-13.303c-2.432-1.274-4.205-2.325-5.575-3.302c-10.05-7.174-21.581-10.661-35.255-10.661
			l-0.92,0.004c-7.814,0.089-14.884,1.093-21.72,2.063l-1.506,0.214c-3.123,0.441-6.297,0.841-9.565,1.235
			c-0.27-0.36-0.541-0.719-0.815-1.079c-1.909-2.511-4.121-5.022-6.765-7.672c-4.958-4.97-11.629-7.708-18.788-7.708
			c-8.364,0-16.44,3.877-21.617,10.379c-8.607,10.822-7.869,21.496-6.664,26.896l1.029,4.605l2.771,3.82
			c1.579,2.177,3.196,4.324,4.816,6.471c2.087,2.763,4.103,5.435,5.932,8.061c-0.004,0.127-0.009,0.255-0.011,0.383
			c-0.16,5.638-0.325,11.467-0.292,17.38c0.087,15.778,2.677,29.966,7.921,43.379c8.97,22.946,25.078,40.988,47.876,53.624
			c12.34,6.84,25.112,8.945,33.647,9.933c5.633,0.653,11.612,0.956,18.81,0.956c4.341,0,8.604-0.108,12.73-0.213l1.626-0.041
			c1.659-0.041,3.317-0.114,4.972-0.186c1.949-0.086,3.893-0.179,5.834-0.179c2.562,0,4.35,0.187,5.635,0.588
			c2.508,0.784,5.112,1.182,7.74,1.182c0,0,0,0,0.002,0c7.203,0,14.227-3.044,19.267-8.349c5.056-5.321,7.74-12.523,7.368-19.76
			c-0.334-6.526-0.737-13.048-1.138-19.571L884.929,856.612z"/>
	</g>
	<g>
		<path fill="#2B2B2B" d="M315.561,486.232c4.384-0.109,8.762-0.481,12.839-0.721c5.247,3.331,8.397,7.827,10.447,13.203
			c0.712,1.868,1.479,3.724,2.365,5.514c3.899,7.874,7.279,16.054,13.456,22.581c5.829,6.159,11.764,12.04,21.156,11.916
			c1.142-0.015,2.297,0.645,3.44,1.01c10.269,3.276,20.531,3.021,30.803-0.002c1.534-0.451,3.107-0.824,4.688-1.046
			c2.054-0.288,3.985,0.067,5.476,1.715c1.345,1.487,2.776,2.904,4.044,4.454c6.937,8.472,16.426,11.143,26.759,11.389
			c5.249,0.125,10.297-1.119,14.452-4.908c2.325-2.12,5.05-3.802,7.279-5.448c2.683,0.892,3.891,2.433,4.239,4.541
			c1.19,7.209,0.787,14.297-1.282,21.361c-2.026,6.917-3.774,13.923-5.387,20.95c-0.428,1.864,0.008,3.954,0.207,5.925
			c0.126,1.246,2.128,3.076,3.31,3.156c1.585,0.107,3.178,0.114,4.768,0.142c8.9,0.155,17.471,2.271,25.996,4.518
			c5.122,1.35,8.075,4.995,9.182,10.137c0.253,1.175,0.467,2.363,0.61,3.555c0.857,7.165,3.501,13.962,4.003,21.244
			c0.372,5.4,7.051,10.925,12.628,11.078c7.307,0.201,14.38-0.465,21.198-3.358c3.676-1.559,7.536-2.684,11.316-3.997
			c4.541-1.578,9.06-3.225,13.636-4.694c3.061-0.982,4.643-3.162,5.06-6.099c0.335-2.357,0.289-4.802,0.114-7.187
			c-0.175-2.391-0.663-4.766-1.112-7.129c-1.289-6.792,1.407-11.722,7.091-15.226c2.041-1.258,4.238-2.262,6.276-3.523
			c3.412-2.111,4.239-5.856,2.27-9.399c-2.384-4.289-5.651-7.76-9.605-10.619c-5.99-4.333-10.418-9.958-13.457-16.646
			c-0.805-1.772-1.511-3.814-1.452-5.707c0.149-4.774,0.758-9.534,1.235-14.881c1.789,0.597,3.298,0.917,4.637,1.58
			c6.104,3.02,12.178,6.1,18.226,9.232c3.301,1.71,6.798,2.464,10.445,2.093c0.992-0.101,2.388-1.041,2.715-1.923
			c0.824-2.224,1.376-4.611,1.616-6.975c0.457-4.496,2.026-8.628,4.182-12.454c6.114-10.851,11.114-22.179,15.881-33.676
			c3.395-8.187,6.216-16.46,8.398-25.027c1.208-4.744,1.652-9.437,1.343-14.283c-0.28-4.399-0.403-8.808-0.53-13.215
			c-0.048-1.656,1.182-3.179,2.734-3.404c4.745-0.687,9.311-1.514,13.797-3.692c6.629-3.219,12.17-7.614,17.307-12.708
			c3.439-3.41,6.506-6.998,8.059-11.778c2.01-6.186,5.895-11.446,9.774-16.491c6.211-8.077,13.925-14.02,24.304-16.591
			c8.507-2.108,16.714-5.551,24.901-8.787c5.228-2.066,10.047-4.879,12.868-10.276c1.081-2.067,3.042-3.711,4.738-5.413
			c4.088-4.104,6.399-9.177,8.029-14.596c0.795-2.642,1.26-5.384,1.943-8.385c1.643-0.224,3.188-0.532,4.746-0.628
			c4.002-0.246,8.011-0.574,12.015-0.553c9.479,0.05,17.023-4.485,23.555-10.536c7.95-7.366,15.173-15.441,19.089-25.919
			c1.399-3.743,3.365-7.276,5.09-10.896c2.427-5.094,5.345-9.846,9.204-14.028c2.443-2.648,4.677-5.504,6.835-8.394
			c1.543-2.066,1.66-4.474,0.657-6.849c-1.104-2.613-2.638-4.915-4.888-6.74c-8.777-7.12-18.11-13.292-28.949-16.823
			c-3.8-1.238-7.818-1.845-11.552-3.235c-7.275-2.709-14.833-3.303-22.454-3.646c-2-0.091-4.012,0.098-6.016,0.059
			c-4.052-0.079-5.565-2.006-4.826-6.291c0.613-3.554,1.06-7.19,2.182-10.592c2.608-7.906,2.125-15.766,0.712-23.773
			c-0.868-4.916-2.878-9.254-6.043-12.916c-5.051-5.845-10.663-10.918-19.22-10.783c-2.371,0.037-4.793-0.487-7.113-1.069
			c-1.064-0.267-2.136-1.137-2.846-2.021c-0.989-1.233-1.835-2.662-2.406-4.137c-2.308-5.967-7.069-9.691-12.122-12.962
			c-3.445-2.23-7.392-2.87-11.491-1.181c-3.277,1.351-6.669,2.423-10.08,3.643c-4.327-3.698-7.05-8.045-9.086-12.902
			c-1.545-3.686-3.078-7.381-4.754-11.008c-1.39-3.01-3.715-5.043-6.731-6.568c-4.772-2.412-9.755-3.681-15.048-3.665
			c-5.619,0.018-11.237,0.217-16.675,1.921c-3.19,0.999-5.462-0.369-7.122-2.973c-1.073-1.683-1.898-3.523-2.971-5.206
			c-3.504-5.493-8.112-8.498-15.062-7.644c-4.064,0.499-7.703,2.191-11.599,2.954c-7.277,1.426-13.486,4.759-19.41,9.087
			c-5.158,3.769-10.736,6.964-16.282,10.51c-11.544-3.713-22.977-7.302-34.344-11.089c-4.723-1.574-9.428-1.696-14.219-0.792
			c-1.867,0.353-3.518,2.123-6.194,0.411c-6.847-9.186-15.902-17.108-24.885-25.106c-4.219-3.757-8.804-6.936-13.882-9.447
			c-2.559-1.265-5.124-2.13-8.009-2.264c-6.527-0.301-8.168-2.385-11.138,7.002c-1.306,4.13-4.109,7.766-6.02,11.73
			c-2.949,6.12-6.48,12.103-8.376,18.553c-2.707,9.207-4.371,18.739-3.886,28.498c0.159,3.188-0.239,6.409-0.473,9.609
			c-0.116,1.582-0.463,3.134-2.652,3.998c-7.83-3.133-16.215-5.592-24.945-7.069c-13.423-2.272-26.751-5.102-40.12-7.689
			c-0.392-0.076-0.798-0.083-1.196-0.13c-6.849-0.798-8.853,0.225-10.941,6.407c-3.344,9.901-5.722,20.048-6.641,30.481
			c-0.208,2.359-0.065,4.805,0.305,7.149c1.312,8.306,2.762,16.59,4.235,24.869c0.278,1.565,0.742,3.141,1.389,4.59
			c5.374,12.026,9.128,24.852,17.49,35.421c0.692,0.875,0.496,2.355-0.634,3.193c-1.589,1.178-3.245,2.266-5.232,3.642
			c-7.081-3.591-13.066-6.798-19.201-9.686c-5.407-2.546-10.833-5.249-16.535-6.899c-3.714-1.074-7.939-0.355-11.932-0.502
			c-1.6-0.059-3.192-0.345-4.793-0.427c-6.925-0.354-13.523,1.049-19.802,3.922c-5.676,2.597-9.76,6.977-12.879,12.236
			c-0.992,1.672-1.843,3.753-1.827,5.638c0.059,6.784-1.029,13.594,0.537,20.363c1.354,5.851,2.451,11.762,3.61,17.657
			c0.637,3.241,0.463,6.309-1.645,9.148c-2.384,3.208-4.279,6.802-6.83,9.858c-7.191,8.61-14.249,17.319-21.262,26.074
			c-4.889,6.104-7.978,12.916-11.085,19.829c-0.762,1.695-0.635,3.917-0.48,5.863c0.189,2.381,1.05,4.709,1.242,7.09
			c0.399,4.94,2.09,9.341,4.793,13.441c2.866,4.347,5.461,8.884,8.491,13.11c4.319,6.022,5.859,12.236,2.35,19.126
			c-4.146,8.14-3.229,17.217-4.821,25.829c-0.14,0.756-0.034,1.62,0.182,2.369c1.217,4.226,2.063,8.629,3.843,12.611
			c6.739,15.074,18.298,23.966,34.865,25.85C308.332,486.369,311.966,486.32,315.561,486.232z M411.751,526.868
			c-3.442,0.424-6.934,0.622-10.318,1.334c-3.64,0.766-7.142,0.271-10.74-0.061c-1.898-0.175-3.876,0.742-5.84,1.002
			c-5.808,0.767-11.128-0.148-15.536-4.458c-2.859-2.795-6.118-5.207-8.801-8.153c-4.074-4.473-7.303-9.701-8.911-15.479
			c-1.523-5.474-3.69-10.53-6.35-15.477c-0.709-1.319-0.828-2.955-1.2-4.378c4.64-4.128,9.896-3.343,14.991-3.168
			c0.71,0.024,1.624,0.55,2.057,1.131c1.886,2.529,3.218,5.483,5.893,7.414c0.128,0.092-0.442,1.249-0.774,1.864
			c-1.958,3.62-2.062,4.58-0.235,6.312c2.597,2.462,5.882,4.435,7.776,7.334c2.007,3.072,5.53,4.381,7.236,7.835
			c1.214,2.458,4.717,2.811,7.525,2.927c1.015,0.042,2.47-0.7,2.993-1.539c0.475-0.761,0.325-2.38-0.203-3.2
			c-1.015-1.575-2.426-2.895-3.704-4.301c1.057-0.093,2.117-0.237,3.168-0.19c3.495,0.155,3.748,0.439,4.25,4.051
			c0.594,4.283,1.924,5.055,6.432,3.749c0.744-0.216,1.499-0.392,2.231-0.582c2.178,1.024,4.343,2.041,6.443,3.029
			c0.439,0.742,1.13,1.389,1.179,2.081C411.561,519.497,412.688,523.025,411.751,526.868z M348.157,365.633
			c-0.416-2.312-1.249-4.655-2.379-6.715c-4.088-7.448-6.768-15.312-7.759-23.937c2.625-7.061,8.233-11.59,14.604-15.097
			c11.477-6.317,24.022-8.75,37.011-8.685c3.108,0.016,6.233,1.267,9.305,2.114c1.625,0.448,2.467,3.768,1.405,5.206
			c-0.701,0.949-1.396,2.279-2.366,2.591c-6.157,1.983-9.583,6.992-13.349,11.635c-1.259,1.552-2.098,3.576-3.613,4.768
			c-7.895,6.215-10.145,15.168-11.772,24.272c-2.664,14.91-0.229,29.508,3.611,43.932c1.272,4.78,4.082,8.748,7.491,12.152
			c4.811,4.803,9.879,9.356,14.973,13.862c4.796,4.243,9.797,8.254,14.648,12.436c1.442,1.243,2.807,2.638,2.784,4.753
			c-1.749-0.757-3.63-1.318-5.191-2.358c-6.437-4.291-13.513-6.899-21.034-8.431c-3.135-0.639-6.27-1.278-9.42-1.835
			c-8.748-1.546-16.833-5.092-24.893-8.559c-4.819-2.072-8.558-5.897-11.71-10.107c-0.925-1.235-1.598-2.808-1.903-4.324
			c-0.551-2.739-1.053-5.558-0.981-8.329c0.06-2.316,0.636-4.755,1.572-6.881c1.77-4.018,4.053-7.806,5.959-11.769
			C349.91,376.437,350.013,375.953,348.157,365.633z M351.008,296.132c0.021-0.379,0.276-0.745,0.426-1.118
			c0.546,0.234,1.199,0.349,1.615,0.725c0.854,0.772,1.998,1.859,0.991,2.883c-0.432,0.439-1.881-0.121-2.965-0.322
			C351.039,297.577,350.968,296.852,351.008,296.132z M350.035,299.41c0.029-0.254-0.031-0.643,0.105-0.732
			c0.149-0.098,0.338-0.136,0.534-0.164C350.461,298.813,350.248,299.112,350.035,299.41z M428.287,330.543
			c2.456,1.104,4.643,3.133,6.518,5.144c5.975,6.408,8.348,14.494,9.791,22.863c0.322,1.87-0.114,4.001-0.677,5.868
			c-1.505,4.994-3.452,9.825-6.406,14.184c-1.798,2.653-3.534,5.35-5.373,7.974c-6.666,9.511-13.338,19.018-20.098,28.462
			c-0.546,0.762-1.787,1.026-2.731,1.535c-0.309-0.675-0.655-1.061-0.615-1.4c0.487-4.084-0.198-7.255-5.257-7.521
			c-0.457-0.024-1.179-1.104-1.181-1.697c-0.002-0.45,0.885-1.017,1.482-1.327c0.697-0.363,1.522-0.473,2.269-0.753
			c0.36-0.135,0.848-0.332,0.968-0.627c0.42-1.032,1.138-2.219,0.921-3.155c-0.216-0.929-1.317-1.81-2.24-2.359
			c-0.576-0.343-1.544,0.016-2.332-0.026c-2.202-0.116-3.86-3.053-2.726-4.968c0.336-0.568,1.251-1.286,1.75-1.185
			c3.568,0.722,5.837-0.4,8.015-3.524c1.984-2.847,5.595-4.533,7.73-7.313c1.472-1.916,2.53-3.592,4.993-4.592
			c5.912-2.399,9.273-7.535,11.684-13.095c1.884-4.345,0.484-8.871-1.717-12.69c-3.12-5.416-8.013-9.292-14.308-9.96
			c-9.285-0.985-14.756-0.862-17.413,11.97c3.516,3.19,6.568,5.764,9.371,8.585c1.412,1.421,2.251,3.366,1.66,5.494
			c-0.193,0.694-0.801,1.768-1.291,1.809c-5.459,0.45-10.38-0.666-13.801-5.444c-5.121-7.154-7.578-14.853-5.397-23.741
			c0.823-3.353,2.565-5.838,5.226-7.754c1.279-0.921,2.757-1.677,4.257-2.159C410.495,326.203,419.564,326.622,428.287,330.543z
			 M405.777,267.738l0.04-0.652l0.663,0.367L405.777,267.738z M457.567,380.706c0.808,1.833,1.624,3.699,2.725,5.358
			c2.852,4.294,1.455,8.491-0.159,12.642c-0.404,1.038-1.398,2.023-2.372,2.628c-2.033,1.265-4.274,2.19-6.358,3.379
			c-9.737,5.552-19.826,10.577-27.502,19.141c-1.215,1.356-3.133,2.08-4.776,3.053c0.17-5.211,1.907-9.952,4.692-14.284
			c3.469-5.397,7.103-10.689,10.733-15.98c3.855-5.621,7.703-11.251,11.713-16.761c3.394-4.665,5.168-9.932,6.228-15.485
			c0.291-1.523,0.192-3.156,0.049-4.719c-0.815-8.948-3.764-17.183-8.452-24.82c-0.628-1.024-1.289-2.03-1.878-3.076
			c-0.697-1.239,0.215-3.581,1.48-3.974c3.883-1.204,7.858-1.645,11.892-1.25c13.25,1.295,18.569,13.342,17.485,21.938
			c-0.875,6.943-3.447,13.171-9.338,17.531c-0.966,0.715-1.998,1.347-2.923,2.111C455.896,372.198,455.12,375.156,457.567,380.706z
			 M417.996,428.903c-0.132,0.195-0.747,0.279-0.989,0.143c-0.881-0.497-0.867-1.177,0.082-1.566c0.512-0.21,1.12-0.188,1.707-0.214
			C418.553,427.827,418.335,428.406,417.996,428.903z M417.622,453.104c-0.554-0.436-1.107-0.872-1.661-1.309
			C416.713,451.983,417.243,452.449,417.622,453.104z M415.135,451.086c-0.639-0.606-1.279-1.211-1.917-1.817
			C414.297,449.426,414.857,450.112,415.135,451.086z M410.271,426.798c-0.593,0.368-1.224,0.674-1.846,0.996
			c-0.128-0.317-0.391-0.89-0.361-0.905c0.619-0.323,1.27-0.584,1.915-0.857C410.083,426.298,410.315,426.771,410.271,426.798z
			 M386.874,503.437c-0.554-0.155-1.108-0.31-1.662-0.464C386.363,501.78,386.544,502.777,386.874,503.437z M374.5,460.404
			c-2.847,1.153-5.777,1.718-8.954,0.489c2.749-0.837,5.072-3.533,8.283-2.275c0.313,0.122,0.677,0.407,0.778,0.7
			C374.72,459.644,374.669,460.335,374.5,460.404z M406.139,473.343c-4.137-6.36-9.254-12.164-11.468-19.646
			c-0.329-1.112-0.508-2.269-0.749-3.407c2.948-0.241,5.312,1.236,7.62,2.749c4.355,2.857,8.68,5.759,12.966,8.718
			c2.931,2.024,5.871,2.342,9.013,0.547c0.215-0.123,1.043,0.314,1.029,0.385c-0.122,0.645-0.182,1.497-0.617,1.847
			c-0.91,0.732-2.244,0.999-3.024,1.818c-1.098,1.153-1.845,2.634-1.041,4.361c0.338,0.725,0.586,1.503,1.001,2.18
			c1.863,3.042,4.08,5.886,3.442,9.894c-0.111,0.695,1.309,1.923,2.273,2.434c1.531,0.814,3.254,0.406,4.379-0.834
			c1.037-1.141,2.333-2.652,2.344-4.009c0.034-4.399,0.528-8.634,1.509-12.947c0.583-2.565-0.302-5.538-0.862-8.258
			c-0.309-1.498-1.089-3.028-2.047-4.234c-1.988-2.502-4.364-4.696-6.35-7.198c-3.761-4.738-3.53-11.275,0.938-15.169
			c6.928-6.039,13.602-12.472,22.212-16.284c2.918-1.292,5.61-3.093,8.425-4.623c7.808-4.244,14.718-9.468,19.324-17.307
			c0.587-0.999,1.562-1.82,2.489-2.559c2.427-1.934,3.549-4.381,2.756-7.397c-0.808-3.074-0.036-5.46,2.318-7.532
			c0.51-0.448,0.995-1.644,0.752-2.117c-2.802-5.473,1.567-7.967,4.976-11.639c0.144-6.565,0.274-13.782,3.241-20.495
			c0.907-2.051,0.304-3.934-0.852-5.652c-2.678-3.978-1.827-7.528,1.136-10.906c1.045-1.192,2.123-2.386,2.95-3.724
			c0.354-0.573,0.434-1.907,0.067-2.214c-0.844-0.707-2.02-1.334-3.093-1.39c-2.781-0.146-3.665,2.857-5.802,3.816
			c-0.352,0.158-1.447-0.489-1.606-0.963c-0.226-0.672-0.027-1.569,0.208-2.3c0.603-1.878-0.317-3.503-1.684-4.046
			c-4.414-1.751-8.939-3.619-13.778-1.197c-1.065,0.533-2.556,1.604-3.252,1.25c-3.204-1.63-6.682-1.454-10.328-0.921
			c0.945-4.658,1.681-8.158,2.354-11.67c0.308-1.605-0.899-3.056-2.622-3.298c-2.457-0.344-4.329,0.671-4.608,2.642
			c-0.391,2.761-0.615,5.546-0.999,8.309c-0.161,1.155-0.389,2.357-0.894,3.387c-0.307,0.625-1.203,0.96-1.834,1.425
			c-0.376-0.574-1.072-1.154-1.061-1.721c0.022-1.17,0.792-2.418,0.551-3.474c-0.211-0.925-1.265-2.079-2.161-2.315
			c-1.014-0.267-2.341,0.208-3.399,0.667c-1.503,0.653-2.799,0.757-4.501,0.407c-5.375-1.106-10.886-1.48-16.33-2.161
			c-4.875-0.61-7.988-3.248-10.984-6.504c-1.193-1.297-0.506-4.404,1.062-5.277c0.698-0.388,1.336-0.949,2.079-1.179
			c10.336-3.196,20.684-6.405,31.506-7.51c6.755-0.69,13.416-2.089,20.332-1.535c8.383,0.671,15.22,3.823,21.448,9.517
			c9.182,8.397,14.299,19.158,19.158,30.164c0.617,1.398,0.592,3.131,0.64,4.715c0.049,1.594-0.549,3.275-0.226,4.781
			c1.455,6.792-0.546,12.72-4.412,18.101c-3.385,4.711-3.742,9.558-1.596,14.772c0.152,0.371,0.269,0.755,0.414,1.129
			c5.684,14.696-0.854,25.594-11.821,34.695c-3.417,2.836-7.445,4.69-11.649,6.12c-2.274,0.773-4.502,1.77-6.836,2.257
			c-5.78,1.207-9.823,5.02-14.273,8.494c-5.134,4.007-7.169,9.548-8.596,15.257c-0.808,3.234,0.312,6.906-0.552,10.398
			c-0.335,1.354,1.201,1.856,2.338,2.259c1.718,0.609,3.355-0.009,4.435-1.104c1.663-1.686,2.799-3.884,4.413-5.63
			c1.079-1.168,2.628-1.651,4.313-0.897c1.438,0.644,2.898,1.528,4.397,1.638c0.863,0.063,1.981-1.069,2.682-1.914
			c0.431-0.518,0.487-1.54,0.375-2.285c-0.847-5.655,0.663-10.862,2.855-15.952c2.327-0.031,3.615,1.737,4.901,3.131
			c0.999,1.082,1.813,2.77,1.864,4.218c0.252,7.146-2.339,13.301-7.166,18.539c-8.669,5.144-11.982,13.514-14.007,22.797
			c-2.156,9.882-8.759,15.888-17.858,19.528c-4.669,1.868-9.26,1.959-13.996,0.024C418.317,485.904,411.129,481.013,406.139,473.343
			z M508.876,298.909c-0.496,0.454-1.426,1.197-1.658,1.041c-0.836-0.563-1.456-1.448-2.157-2.212
			c0.273-0.235,0.546-0.471,1.049-0.905c0.824,0.307,1.805,0.624,2.727,1.064C508.991,297.971,509.048,298.752,508.876,298.909z
			 M510.305,420.513c0.359-0.699,0.502-1.727,1.067-2.063c2.323-1.384,4.939-2.322,7.118-3.885c1.86-1.333,1.591-4.662,4.204-5.408
			c0.856-0.245,2.012,0.559,2.969,0.864c-2.126,5.432-4.176,10.555-6.136,15.712c-1.664,4.377-4.705,7.255-9.109,8.743
			c-5.734,1.938-11.593,1.981-17.451,1.594c-0.573-4.249-0.592-4.258,1.853-9.285c0.661-0.391,1.296-1.05,1.989-1.117
			c1.962-0.192,3.95-0.09,5.923-0.198C506.193,425.28,508.718,423.595,510.305,420.513z M487.722,495.124
			c-2.209,0.141-4.418,0.282-6.627,0.424c0.684-1.793,2.296-1.837,3.792-1.608C485.87,494.09,486.788,494.66,487.722,495.124z
			 M460.813,430.62l-0.808,0.217l0.042-0.523L460.813,430.62z M466.736,534.395c-2.653,2.432-5.466,4.689-8.126,7.114
			c-4.738,4.32-11.113,5.013-16.448,1.616c-4.106-2.615-7.103-6.297-10.244-9.991c-5.817-6.843-8.31-14.415-7.336-23.237
			c0.035-0.321,0.301-0.617,0.46-0.924c0.728,0.211,1.913,0.225,2.11,0.673c1.469,3.344,3.165,6.365,6.616,8.16
			c0.899,0.467,1.615,1.79,1.885,2.854c0.494,1.941,0.556,4.15,2.797,4.865c1.438,0.459,3.223,0.753,4.589,0.31
			c2.546-0.825,4.697,1.212,7.041,0.565c2.684-0.741,5.26-1.886,7.957-2.558c2.502-0.623,4.239-1.94,5.644-4.072
			c0.546-0.829,1.816-1.379,2.859-1.628c1.131-0.27,2.393,0.071,3.577-0.051c3.128-0.322,5.48-1.994,5.813-5.127
			c0.583-5.47,4.116-8.369,8.605-10.073c3.96-1.503,3.812-4.398,3.794-7.483c1.398,0.592,2.884,1.05,4.136,1.866
			c1.965,1.28,3.747,2.839,5.606,4.28c3.533-0.53,7.057-0.252,10.594-0.006c0.615,0.043,1.591-0.677,1.875-1.288
			c0.46-0.99,0.903-2.328,0.579-3.248c-0.335-0.954-1.48-1.973-2.471-2.25c-1.036-0.29-2.335,0.515-3.475,0.401
			c-1.93-0.193-3.861-0.622-5.714-1.196c-0.533-0.165-1.115-1.175-1.108-1.791c0.007-0.568,0.675-1.484,1.22-1.634
			c3.533-0.972,7.035-0.815,10.656,0.017c4.052,0.93,4.713,0.4,6.731-3.005c0.199-0.335,0.28-0.752,0.363-1.142
			c0.829-3.902,7.154-2.979,6.899-7.491c-0.229-4.066,2.354-6.669,3.982-9.802c0.179-0.343,0.504-0.61,1.041-1.241
			c1.266-0.075,2.81-0.117,4.344-0.265c6.057-0.584,7.749-4.326,4.471-9.84c-1.521-2.558-1.039-4.413,1.52-5.792
			c0.351-0.189,0.726-0.359,1.111-0.45c1.987-0.469,4.139-1.024,4.705-3.189c0.879-3.365,3.338-6.628,1.317-10.335
			c-1.005-1.844-1.52-3.679-0.806-5.712c1.109-3.159-1.13-5.277-2.388-7.743c-0.622-2.235,1.431-3.548,1.922-5.39
			c0.508-1.907,0.592-3.927,1.101-5.833c0.748-2.8,3.244-3.228,5.605-3.728c1.742-0.37,3.247,0.26,4.216,1.608
			c1.866,2.596,3.659,5.264,5.244,8.038c1.402,2.452,2.203,5.157,1.922,8.06c-0.115,1.189-0.731,2.567-0.328,3.528
			c2.755,6.573-0.895,10.842-5.341,14.523c-6.486,5.37-10.404,12.064-11.712,20.31c-0.625,3.939-1.332,7.898-1.502,11.869
			c-0.474,11.054-5.782,19.787-12.775,27.791c-2.442,2.795-5.492,4.868-8.999,5.763c-10.922,2.786-20.91,8.016-31.491,11.672
			c-2.65,0.916-5.199,2.341-7.918,2.794C476.842,526.659,471.55,529.983,466.736,534.395z M546.474,549.632
			c-0.261-0.452,0.203-1.406,0.499-2.051c0.108-0.234,0.713-0.363,1.076-0.336c1.972,0.147,3.935,0.368,5.559,1.77
			c0.006,3.251-1.094,5.877-3.978,7.518C550.175,553.544,547.755,551.849,546.474,549.632z M550.434,512.14
			c-0.517-0.964-0.609-2.36-0.406-3.467c0.573-3.129,1.025-6.363,2.197-9.286c4.273-10.666,9.469-20.898,14.962-31.34
			c3.733,3.107,4.536,7.141,5.826,10.82c0.483,1.377,0.14,3.183-0.236,4.692c-0.77,3.091-1.79,6.121-2.756,9.16
			c-2.052,6.455-4.074,12.921-6.242,19.337c-0.758,2.243-1.885,4.365-2.89,6.52c-0.421,0.903-2.283,1.474-3.087,1.096
			C554.409,518.073,552.144,515.326,550.434,512.14z M523.736,523.888c-1.814,0.448-3.622,0.92-5.449,1.304
			c-0.167,0.035-0.611-0.484-0.641-0.774c-0.034-0.331,0.197-0.957,0.409-1.002c1.853-0.396,3.728-0.69,5.596-1.015
			C523.68,522.896,523.708,523.392,523.736,523.888z M502.497,532.891c0.164-0.462,0.328-0.925,0.492-1.387
			C504.347,532.8,503.225,532.738,502.497,532.891z M500.423,573.983c-4.622,2.953-9.272,5.873-14.307,8.101
			c-0.112-6.249,2.79-11.254,6.677-15.841c0.85-1.003,3.177-1.304,4.469-0.461c1.33,0.868,2.598,1.873,3.742,2.975
			C502.455,570.155,502.192,572.852,500.423,573.983z M524,619.847c-0.726-3.11-1.229-6.341-2.47-9.246
			c-1.943-4.549-3.578-8.941-1.105-13.766c0.566-7.762-1.232-15.046-4.567-21.984c-1.035-2.153-2.356-4.169-3.549-6.246
			c-4.435-7.726-10.873-12.605-19.794-14.016c-0.752-0.119-1.443-0.63-2.643-1.179c-2.208-4.171-4.614-8.714-6.995-13.211
			c4.093-6.108,7.464-7.688,14.754-7.089c1.542,0.127,3.1,0.06,4.651,0.075c0.578,0.969,1.074,2.008,1.801,2.847
			c1.577,1.818,3.686,2.198,5.28,1.137c0.33-0.219,0.75-0.378,0.967-0.68c3.341-4.654,7.943-4.761,12.891-3.596
			c0.758,0.179,1.484,0.498,2.581,0.874c0.656,6.542,1.076,13.286,2.057,19.946c1.685,11.443,3.031,22.927,4.586,34.379
			c1.228,9.05,3.07,18.108,6.053,26.845c0.88,2.577,1.343,5.298,1.928,7.674c-2.476,2.746-4.804,0.61-7.003,0.766
			c-2.379,0.169-4.762,0.287-7.132,0.427C524.777,622.912,524.37,621.43,524,619.847z M542.197,639.63
			c-0.138,0.665-0.853,1.528-1.48,1.72c-3.788,1.161-8.334,0.608-10.69-3.043c-2-3.1-1.461-5.359,2.107-6.182
			c2.716-0.627,5.475-1.063,8.156-1.572C542.763,633.327,542.863,636.437,542.197,639.63z M559.605,635.053
			c-1.577,0.289-2.918-0.88-3.081-2.627c-0.168-1.807,0.923-3.271,2.393-3.308c2.456-0.063,4.431,0.676,5.502,3.076
			C563.364,634.089,561.549,634.696,559.605,635.053z M563.964,620.52c-2.698-0.336-5.516-0.347-8.126-1.089
			c-3.961-1.128-7.237-3.325-8.133-7.808c-0.704-3.523-1.785-7.024-2.019-10.58c-0.784-11.949-1.307-23.916-1.834-35.881
			c-0.177-4.024,1.922-6.659,5.55-8.139c0.633,1.726,0.573,4.023,2.842,4.472c1.447,0.286,3.064-0.32,4.61-0.481
			c1.206-0.125,2.337,1.107,2.07,2.162c-0.096,0.381,0.053,0.88-0.14,1.174c-4.231,6.448-3.792,13.682-3.373,20.842
			c0.541,9.247,2.079,18.202,7.695,26.046C565.356,614.383,565.041,614.841,563.964,620.52z M580.63,592.948
			c-3.022,4.621-6.693,6.893-10.032,9.574c-3.966-2.685-4.85-6.754-5.805-10.423c-0.981-3.767-0.864-7.831-1.077-11.773
			c-0.03-0.552,0.687-1.404,1.261-1.657c0.613-0.269,1.626-0.25,2.183,0.096c1.331,0.828,2.653,1.781,3.699,2.936
			C574.039,585.214,577.086,588.847,580.63,592.948z M583.819,508.526c-0.567,7.592-3.222,14.772-5.176,22.081
			c-0.541,2.024-2.996,2.724-4.822,1.443c-1.302-0.915-2.589-1.865-3.79-2.906c-1.954-1.694-2.904-3.686-1.825-6.34
			c2.55-6.274,4.903-12.605,6.54-19.21c0.655-2.641,2.253-5.048,3.662-8.079C582.504,499.308,584.182,503.658,583.819,508.526z
			 M588.651,539.208c-2.154-0.981-3.203-2.812-2.664-4.74c0.836-2.992,0.741-6.38,4.341-9.476
			c1.842,5.517,3.933,10.112,3.841,15.953C591.629,540.164,590.065,539.851,588.651,539.208z M609.181,521.732
			c-1.211,2.873-2.525,5.704-4.058,9.141c-1.104-1.022-2.127-1.535-2.43-2.323c-1.539-4.007-2.943-8.068-4.245-12.158
			c-0.163-0.512,0.558-1.304,1.063-2.379c2.497,0.953,5.08,1.796,7.536,2.918C609.214,517.92,609.984,519.828,609.181,521.732z
			 M616.81,504.141c-1.207,4.835-2.72,5.545-7.725,4.093c-3.424-0.994-6.838-2.164-10.341-2.7c-3.587-0.549-5.753-2.01-6.552-5.7
			c-0.667-3.076-1.884-6.03-2.77-9.064c-0.463-1.584,1.228-3.293,2.758-2.794c8.267,2.697,16.784,4.643,26.015,8.272
			C617.634,499.513,617.378,501.866,616.81,504.141z M622.169,479.998c-0.224,1.576-0.168,3.273-0.777,4.683
			c-0.384,0.89-1.782,1.919-2.69,1.887c-1.964-0.07-3.952-0.64-5.849-1.255c-9.136-2.963-18.244-6.009-28.111-9.274
			c-1.519-4.955-2.785-9.082-4.019-13.108c1.109-0.598,1.841-1.352,2.392-1.237c10.612,2.2,20.925,5.42,31.017,9.353
			c1.489,0.58,3.004,1.166,4.365,1.986C621.077,474.584,622.624,476.793,622.169,479.998z M622.129,464.207
			c-2.95-0.732-5.78-1.09-8.333-2.129c-10.438-4.248-21.322-6.868-32.327-8.984c-5.254-1.01-5.895-7.463-3.342-10.376
			c2.575-2.937,4.704-3.746,8.477-2.025c7.016,3.2,14.573,4.265,21.969,5.933c2.69,0.607,5.587,0.244,8.34,0.651
			c1.007,0.149,2.396,1.061,2.714,1.946c1.345,3.755,2.464,7.604,3.406,11.482C623.263,461.655,622.51,462.843,622.129,464.207z
			 M544.537,267.396c0.68-1.746,1.331-3.503,2.059-5.228c0.802-1.901,3.463-2.101,4.759-0.323c0.689,0.945,1.155,2.05,1.761,3.06
			c0.591,0.987,1.019,2.264,1.895,2.845c1.58,1.048,4.038,1.239,5.022,2.593c1.036,1.426,0.808,3.789,1.075,5.751
			c0.424,3.112,4.078,3.621,5.025,6.297c-0.999,4.219-3.119,7.374-7.841,7.692c-1.501,0.101-3.503,0.164-4.487-0.678
			c-6.729-5.757-14.357-9.941-22.347-13.586c-0.601-0.274-0.937-1.127-1.584-1.948C533.182,268.139,537.995,265.875,544.537,267.396
			z M530.638,259.451c0.281-0.125,0.6-0.406,0.837-0.349c0.949,0.23,1.057,0.734,0.274,1.229c-0.216,0.137-0.684,0.075-0.915-0.079
			C530.665,260.14,530.696,259.729,530.638,259.451z M539.439,258.724c0.284,0.183,0.567,0.365,0.851,0.548
			c-0.223-0.027-0.549,0.026-0.645-0.098C539.548,259.046,539.489,258.888,539.439,258.724z M559.142,255.048
			c-7.961-6.436-13.759-14.447-17.869-23.74c-2.154-4.871-2.559-10.061-2.417-15.301c0.133-4.899,2.765-8.359,6.945-10.466
			c2.836-1.43,5.969-2.295,9.011-3.285c2.282-0.743,4.595-1.514,6.956-1.871c7.033-1.065,11.242-5.864,14.812-11.274
			c1.251-1.896,1.666-4.482,1.997-6.819c0.859-6.056,3.012-11.657,6.006-16.876c3.111-5.424,7.613-9.334,14.171-9.943
			c1.522-0.141,3.124,0.42,4.67,0.749c1.018,0.217,1.379,2.244,0.547,2.965c-5.142,4.452-10.325,8.828-14.855,13.967
			c-3.264,3.703-5.694,7.629-6.89,12.446c-3.601,14.502-5.874,29.009-2.857,43.991c1.697,8.432,4.822,16.094,9.849,23.01
			c2.355,3.241,4.832,6.394,7.234,9.601c0.973,1.299,0.807,3.209-0.406,4.326c-3.525,3.249-6.99,6.591-12.638,8.81
			c-2.507-2.064-4.666-3.811-6.791-5.598C570.79,264.843,565.058,259.832,559.142,255.048z M546.028,157.828
			c0.914-1.428,2.408-1.216,3.758-1.4C549.545,159.874,549.456,159.85,546.028,157.828z M651.597,178.965
			c3.167,0.22,6.308,1.11,9.407,1.903c1.922,0.492,3.833,1.201,5.586,2.123c1.738,0.914,3.273,2.217,4.629,3.163
			c2.382,6.593,2.981,12.863,1.082,19.256c-0.712,2.396-1.876,4.525-4.479,5.193c-4.631,1.188-7.316,4.329-9.721,8.275
			c-3.806,6.246-9.61,10.591-15.581,14.653c-1.477,1.005-2.96,0.652-4.539,0.153c-2.548-0.806-4.856-0.156-6.352,2.07
			c-2.165,3.222-5.132,4.896-8.884,5.501c-3.467,0.56-6.626,2.336-10.504,0.664c-2.807-1.21-6.259-0.901-9.414-1.335
			c-2.24-0.308-2.449-0.623-1.674-3.86c0.55-2.298-0.193-3.914-2.06-5.068c-1.003-0.62-2.168-0.976-3.245-1.445
			c-2.095-2.768-1.528-6.18-2.618-9.668c2.389-5.099,5.447-10.237,8.426-15.408c0.293-0.509,1.122-0.709,1.778-1.008
			c0.164,3.118,0.307,6.238,0.503,9.354c0.222,3.535,2.111,6.037,5.2,7.512c2.139,1.022,4.413,1.887,6.72,2.404
			c3.552,0.796,7.156,0.533,10.751-0.116c10.049-1.815,14.06-5.595,15.192-15.609c0.836-7.395-2.434-13.343-8.521-17.426
			c-5.031-3.374-10.764-5.497-16.729-6.404c-6.958-1.058-12.594,1.848-16.622,7.491c-2.745,3.846-5.07,7.992-7.69,12.176
			c-2.215-3.779-3.381-7.385-2.769-9.97c0.735-3.1,1.383-6.375,2.908-9.105c4.6-8.228,10.803-14.93,19.943-18.288
			c3.383-1.243,6.761-2.566,10.242-3.461c5.982-1.538,11.174,0.574,14.688,5.608c0.229,0.328,0.478,0.664,0.609,1.035
			C640.148,175.814,644.967,178.503,651.597,178.965z M649.353,144.107c0.287-0.096,0.604-0.322,0.855-0.265
			c1.002,0.227,1.109,0.664,0.285,1.059c-0.244,0.117-0.659,0.045-0.914-0.092C649.424,144.724,649.424,144.35,649.353,144.107z
			 M608.75,195.171c2.655-2.053,5.975-2.421,9.138-1.596c3.445,0.898,6.792,2.229,10.105,3.56c4.318,1.735,5.577,5.398,5.517,9.662
			c-0.029,2.064-0.879,3.794-2.693,5.017c-4.227,2.851-8.832,3.666-13.647,2.183c-1.326-0.408-2.528-1.843-3.353-3.093
			c-1.069-1.618-0.354-4.439,1.137-5.318c1.71-1.007,3.642-1.677,5.23-2.834c0.822-0.599,1.393-1.889,1.561-2.949
			c0.219-1.375-1.429-2.91-2.919-3.268c-2.433-0.585-4.833-0.455-6.887,0.947c-2.858,1.95-5.553,4.139-8.312,6.235
			C603.368,199.733,605.989,197.305,608.75,195.171z M683.116,274.898c1.242-2.856,2.373-5.858,3.828-8.692
			c1.423-2.77,2.687-5.485,5.534-7.544c2.429-1.757,3.573-5.216,5.531-7.732c0.928-1.193,2.361-2.062,3.713-2.813
			c0.388-0.215,1.532,0.324,1.893,0.829c0.408,0.57,0.467,1.499,0.432,2.26c-0.166,3.598-0.53,7.19-0.612,10.789
			c-0.192,8.448,0.205,16.796,4.649,24.393c0.551,0.942,0.532,2.218,0.846,3.656c-8.314,4.977-16.797,9.399-25.525,13.301
			c-16.44,7.349-33.329,13.522-50.528,18.871c-4.569,1.421-8.973,3.371-13.455,5.072c-1.924,0.73-3.968,1.184-5.768-0.004
			c-3.519-2.321-7.325-2.989-11.438-2.694c-2.654,0.19-4.471-1.407-6.097-3.251c-1.786-2.025-0.594-5.986,2.147-6.855
			c0.607-0.193,1.712-0.082,2.048,0.329c3.292,4.038,7.652,3.774,12.02,2.943c3.119-0.593,6.069-1.863,9.302-0.196
			c0.818,0.422,2.385-0.065,3.356-0.596c2.095-1.145,4.931-2.144,5.845-4.001c2.136-4.336,5.844-4.977,9.766-5.896
			c1.915-0.449,3.863-1.211,5.501-2.282c2.574-1.683,4.872-1.772,7.85-0.823c4.09,1.303,4.803,0.49,6.487-4.516
			c0.248-0.739,0.632-1.431,1.007-2.264c1.399-0.56,2.857-1.237,4.374-1.732c4.322-1.411,7.961-3.727,10.462-7.616
			c1.332-2.072,3.27-3.364,5.288-4.731C684.988,280.791,684.98,279.958,683.116,274.898z M745.039,272.665
			c0.224-0.24,0.812-0.427,1.057-0.301c0.601,0.309,1.453,0.725,1.589,1.256c2.004,7.814,0.883,15.023-4.179,21.522
			c-1.979,2.54-3.817,5.177-6.707,6.755c-4.511,2.464-7.554,6.978-13.058,8.235c-5.81,1.326-11.351,3.807-17.049,5.666
			c-2.425,0.791-4.261,2.13-5.348,4.434c-1.023,2.169-1.942,4.388-3.016,6.531c-1.725,3.443-4.657,5.397-8.289,6.397
			c-3.937,1.084-8.002,1.204-11.912,0.4c-8.199-1.684-16.315-3.777-24.388-5.684c0.044-1.12-0.183-2.293,0.141-2.473
			c2.074-1.153,4.178-2.413,6.438-3.043c13.567-3.785,26.168-9.874,38.764-15.986c3.597-1.745,7.125-3.635,10.739-5.344
			c11.369-5.374,21.275-12.678,29.563-22.159C741.227,276.764,743.126,274.706,745.039,272.665z M744.497,253.684
			c0.458,0.44,1.241,0.84,1.303,1.332c0.151,1.193-1.217,2.191-2.275,1.783c-0.325-0.125-0.656-0.493-0.784-0.826
			C742.29,254.795,743.177,253.677,744.497,253.684z M707.465,349.179c-3.44,0.803-6.847,1.65-10.286,2.335
			c-0.413,0.082-1.063-0.659-1.468-1.134c-0.122-0.142,0.108-0.837,0.359-1.004c2.293-1.533,4.558-3.122,7.45-3.39
			C705.095,345.84,706.451,346.826,707.465,349.179z M626.194,352.026c0.396,2.004,0.809,4.006,1.148,6.02
			c0.032,0.19-0.516,0.706-0.686,0.661c-0.624-0.164-1.571-0.362-1.736-0.798C624.083,355.702,624.478,353.683,626.194,352.026z
			 M613.274,369.87c0.582,0.957,1.297,1.874,1.608,2.913c0.155,0.517-0.414,1.472-0.924,1.92c-0.968,0.848-2.082,0.889-2.957-0.27
			c-0.477-0.631-1.024-1.249-1.327-1.962c-0.588-1.383,0.269-2.196,1.443-2.563C611.775,369.702,612.545,369.852,613.274,369.87z
			 M614.727,368.243c-0.277,0.511-0.828,0.874-1.319,1.269c0.03-0.615,0.021-1.246,0.235-1.788c0.212-0.537,0.813-0.921,1.241-1.372
			C614.849,366.991,615.004,367.734,614.727,368.243z M607.023,380.351c0.794,1.037,1.683,2.267,2.644,3.436
			c0.948,1.152,2.681,2.407,1.398,3.818c-0.894,0.983-2.929,1.452-4.36,1.295c-1.852-0.204-3.57-1.687-5.416-1.856
			c-3.491-0.32-7.031-0.095-11.265-0.097c0.542-1.154,0.623-1.699,0.861-1.78C596.047,383.416,600.871,380.531,607.023,380.351z
			 M756.087,341.475c-0.94,5.269-3.667,9.742-6.192,14.261c-1.122,2.009-3.091,3.755-5.057,5.035
			c-3.345,2.179-6.827,4.334-10.541,5.726c-11.622,4.353-23.01,9.35-34.883,13.016c-6.45,1.992-11.242,5.872-14.685,11.668
			c-4.095,6.895-8.27,13.75-12.66,20.459c-3.286,5.023-6.882,9.852-10.498,14.648c-3.037,4.029-7.318,6.159-12.193,7.133
			c-9.575,1.913-19.154,1.725-28.67-0.301c-10.959-2.334-21.88-4.849-33.122-7.354c0.32-1.666,0.679-3.535,1.051-5.476
			c-1.197-1.518-2.422-3.074-3.814-4.84c0.591-0.957,1.082-1.99,1.786-2.849c2.871-3.502,2.889-3.479,0.243-8.127
			c-0.152-0.267-0.092-0.655-0.136-1.037c2.469-2.549,4.96-5.12,7.734-7.982c3.12-0.846,6.573-1.782,9.907-2.685
			c0.886,0.354,1.68,0.553,2.348,0.959c1.871,1.136,3.918,1.496,5.614,0.141c2.198-1.754,4.585-3.065,7.056-4.335
			c1.969-1.012,2.724-2.673,1.069-4.986c-1.999-2.794-0.206-5.459-0.885-8.087c-0.482-1.867,1.243-2.762,2.058-4.063
			c0.84-1.343,1.56-2.761,2.463-4.381c7.359-3.523,11.696,0.79,15.514,6.953c2.194,0.326,4.563,0.974,6.916,0.918
			c1.427-0.034,2.993-0.937,4.199-1.845c1.565-1.178,0.82-4.568-0.998-4.972c-1.15-0.255-2.435,0.022-3.544-0.318
			c-1.46-0.448-3.599-0.926-4.055-1.988c-1.532-3.569-4.499-4.152-7.661-4.831c-0.406-0.087-1.012-1.468-0.802-1.823
			c0.98-1.657,1.597-3.699,3.929-4.523c0.947,1.575,1.543,3.999,2.932,4.605c3.955,1.725,7.143,5.293,11.814,5.273
			c2.272-0.01,2.181,1.574,2.707,3.06c0.347,0.98,1.444,1.798,2.381,2.429c0.6,0.404,1.517,0.446,2.295,0.46
			c3.581,0.063,7.348,0.764,10.694-0.113c3.607-0.945,6.136,1.618,9.263,1.457c2.392-0.124,4.818-0.374,7.13-0.958
			c1.566-0.396,2.818-1.747,2.725-3.504c-0.056-1.051-0.736-2.147-1.37-3.061c-0.424-0.611-1.258-0.938-2.055-1.494
			c0.573-0.576,1.037-1.439,1.704-1.642c2.283-0.697,4.626-1.221,6.97-1.695c1.436-0.29,3.392,1.106,3.544,2.575
			c0.119,1.156-0.199,2.351-0.151,3.521c0.084,2.006,1.034,2.956,2.865,3.079c2.427,0.164,3.927-0.879,4.266-3.109
			c0.237-1.557-0.005-3.263,0.546-4.676c0.552-1.418,1.595-3.32,2.818-3.684c5.267-1.569,7.647-5.443,9.285-10.173
			c0.245-0.708,0.817-1.303,1.238-1.95c0.579,0.436,1.134,0.903,1.732,1.306c3.334,2.244,6.471,2.06,8.441-0.552
			c0.72-0.955,1.257-2.047,1.906-3.058c3.419-5.323,3.422-5.321-1.433-11.021c0.785-3.448,3.35-3.91,6.239-3.829
			c0.005,1.139-0.104,2.299,0.095,3.403c0.404,2.247,2.135,3.542,4.207,3.371c2.076-0.17,3.768-1.967,3.726-3.954
			c-0.008-0.399,0.07-0.817-0.022-1.194c-0.552-2.258-1.956-4.451-0.138-6.804c1.41-1.824,3.59-1.499,5.408-2.181
			c2.698-1.011,3.141-1.848,2.929-5.496c-0.044-0.769-0.455-1.653-0.194-2.273c0.45-1.069,1.27-1.99,1.98-2.94
			c2.547-3.405,3.828-6.981,1.868-11.174c-0.149-0.319,0.647-1.137,1.106-1.627c0.077-0.082,0.957,0.28,0.994,0.513
			C760.357,312.939,758.631,327.219,756.087,341.475z M783.014,321.241c-0.312,0.561-1.235,0.82-1.934,1.112
			c-0.346,0.145-0.786,0.068-1.967,0.138c-1.593-0.253-3.965-0.552-6.297-1.047c-0.71-0.151-1.465-0.716-1.923-1.306
			c-1.328-1.712-0.69-6.902,1.161-8.971c0.344-0.385,1.658-0.498,2.027-0.172c2.981,2.625,5.884,5.344,8.699,8.147
			C783.191,319.55,783.303,320.722,783.014,321.241z M802.342,315.034c-1.476,1.749-3.392,3.127-5.439,4.947
			c-4.901-4.396-8.724-7.838-12.56-11.264c-3.864-3.451-7.834-6.789-11.585-10.358c-3.596-3.421-3.407-7.774-2.265-12.143
			c0.148-0.568,1.174-1.205,1.845-1.27c1.129-0.109,2.634-0.199,3.403,0.42c9.283,7.476,19.212,14.269,26.281,24.153
			c0.23,0.321,0.388,0.694,0.592,1.035C803.545,312.113,803.353,313.836,802.342,315.034z M825.746,280.439
			c-0.525,0.854-2.17,1.044-3.069,0.383c-3.168-2.329-6.017-4.973-9.226-9.139c6.005-2.656,10.854-5.143,16.918-3.442
			C829.747,272.873,828.012,276.751,825.746,280.439z M810.305,258.296c0.53-3.114,0.82-6.304,2.105-9.176
			c8.731,1.59,10.766,2.84,13.685,8.386c-4.266,1.17-8.48,2.357-12.714,3.472C811.778,261.4,810.038,259.87,810.305,258.296z
			 M788.433,263.899c0.939-5.95,2.433-11.737,4.977-17.251c1.474-3.194,3.697-4.177,7.948-2.793
			c0.878,0.286,1.789,1.707,1.935,2.713c0.222,1.533-0.069,3.189-0.39,4.742c-0.969,4.687-2.056,9.349-3.282,14.847
			c-3.984,1.063-6.982,1.864-9.644,2.574C788.084,267.115,788.188,265.448,788.433,263.899z M806.949,279.552
			c1.388,0.771,2.739,1.646,3.987,2.627c9.963,7.832,9.108,8.548,4.237,18.828c-1.496,3.156-3.976,3.741-6.753,1.764
			c-0.972-0.692-1.997-1.341-2.849-2.163c-6.004-5.797-11.988-11.614-17.912-17.492c-0.485-0.481-0.477-1.46-0.784-2.497
			C793.327,276.076,800.009,275.7,806.949,279.552z M766.286,253.075c0.269-6.366,0.784-7.701,7.98-9.905
			c2.88-0.882,6.087-1.959,9.136,0.502c-0.471,9.497-3.193,18.574-6.032,27.6c-0.76,2.416-2.96,3.566-5.531,3.858
			c-1.724,0.196-3.508-0.655-3.833-2C766.412,266.533,766,259.841,766.286,253.075z M708.995,155.707
			c3.323-2.444,6.966-3.702,11.212-2.308c1.983,0.651,3.769,1.425,4.774,3.276c1.522,2.803,2.837,5.717,4.333,8.534
			c1.946,3.665,4.667,6.512,8.892,7.42c6.65,1.43,12.467,5.449,19.372,6.117c2.152,0.208,3.531,1.867,4.46,3.656
			c0.908,1.748,1.979,3.643,2.096,5.529c0.396,6.36,1.295,12.88,0.362,19.092c-1.775,11.819-4.355,23.562-9.367,34.562
			c-0.632,1.387-1.657,2.594-2.728,4.233c-1.64-2.87-2.974-5.206-4.481-7.843c1.109-1.892,2.279-3.888,3.565-6.082
			c-1.277-2.329-2.83-4.629-3.842-7.146c-1.241-3.084-1.772-6.254,1.965-8.345c0.641-0.359,1.253-1.123,1.461-1.824
			c0.325-1.095,0.83-2.907,0.323-3.353c-3.224-2.837-2.705-7.448-5.285-10.574c-0.561-0.679-0.564-2.806-0.004-3.264
			c4.1-3.354,3.143-7.71,2.721-11.979c-0.153-1.542-1.727-2.814-3.33-2.87c-1.668-0.059-3.261,0.979-3.541,2.526
			c-0.209,1.158,0.193,2.521-0.276,3.511c-0.407,0.861-1.756,1.978-2.509,1.857c-3.931-0.63-7.643-1.578-9.028-6.294
			c-0.661-2.251-2.334-2.621-4.92-2.057c-1.108,0.242-2.158,0.744-3.168,1.104c-1.869-1.609-2.577-4.324-5.361-4.613
			c-1.93-0.2-4.038,0.147-5.389-1.826c0.405-2.555,2.107-4.827,0.276-7.854c-1.813-2.999-2.64-6.638-3.6-10.079
			C707.726,157.91,708.257,156.25,708.995,155.707z M705.481,196.889c4.187,0.978,6.711,3.326,8.057,6.967
			c2.12,5.736,3.051,11.564,1.668,17.661c-1.12,4.937-3.569,8.868-7.947,11.495c-2.056,1.234-4.226,2.29-6.213,3.622
			c-7.681,5.152-14.765,11.004-20.26,18.526c-4.055,5.55-7.327,11.469-7.476,18.636c-0.1,4.798-2.427,8.413-6.445,10.855
			c-1.665,1.012-3.572,2.033-5.449,2.212c-4.371,0.417-8.914,1.035-13.165,0.294c-9.134-1.591-18.368-0.518-27.507-1.829
			c-7.182-1.03-14.35,0.465-21.424,1.935c-1.865,0.388-3.719,1.489-5.685,0.325c0.218-0.768,0.26-1.644,0.678-2.267
			c3.142-4.681,6.893-8.889,11.268-12.392c10.917-8.741,21.904-17.413,34.081-24.402c10.374-5.953,21.057-11.428,31.061-17.947
			c8.35-5.441,16.056-11.917,23.774-18.266C699.488,208.21,702.667,202.539,705.481,196.889z M584.844,130.57
			c5.965-8.685,15.075-12.904,24.264-16.956c2.171-0.957,4.529-1.573,6.859-2.071c5.876-1.257,11.104-0.388,15.124,4.692
			c1.219,1.541,3.224,2.45,4.491,3.964c4.151,4.962,9.493,5.504,15.296,4.407c4.693-0.887,9.292-2.228,14.155-2.112
			c2.49,0.06,4.502,0.916,6.722,1.996c6.5,3.16,10.45,8.274,13.465,14.649c2.901,6.134,6.495,11.941,9.762,17.903
			c1.536,2.803,3.139,5.58,4.461,8.483c0.433,0.951,0.077,2.261,0.082,3.466c-2.989-0.488-4.125-2.839-5.211-4.744
			c-4.043-7.085-10.309-11.114-17.801-13.386c-5.727-1.737-11.605-2.982-17.419-4.43c-1.617-0.403-2.039-1.602-1.106-3.695
			c0.16-0.36,0.518-0.637,0.659-1.001c1.201-3.106-0.304-5.576-3.594-5.78c-2.794-0.172-5.597-0.284-8.395-0.273
			c-2.915,0.011-5.414-1.25-8.034-2.237c-2.537-0.956-2.734-3.829-4.663-5.283c-1.537-1.158-4.226-1.028-5.319,0.627
			c-0.645,0.977-0.975,2.156-1.518,3.206c-0.361,0.698-0.85,1.329-1.206,1.875c-2.72,1.046-5.33,2.063-7.95,3.052
			c-1.525,0.576-3.209,0.975-4.487-0.203c-0.807-0.744-1.171-2.036-1.565-3.142c-0.631-1.771-1.878-2.505-3.64-2.274
			c-1.673,0.22-3.153,1.137-3.642,2.715c-0.449,1.449-0.318,3.094-0.34,4.655c-0.016,1.122,0.208,2.637-1.218,2.606
			c-0.865-0.018-1.728-1.317-2.539-2.095c-0.275-0.264-0.344-0.729-0.586-1.041c-1.137-1.465-2.87-2.1-4.047-1.188
			c-0.848,0.657-1.358,1.783-1.917,2.758c-0.164,0.286-0.039,0.787,0.056,1.164c0.894,3.575-0.163,6.334-3.496,8.011
			c-6.722,3.381-11.099,9.044-15.035,15.176c-2.841,4.426-4.882,9.08-5.833,14.348c-2.229,12.348-3.462,11.935-14.108,14.896
			c-1.568,0.436-3.324-1.025-3.139-2.565c1.156-9.662,4.398-18.646,8.93-27.195c0.937-1.767,2.321-3.327,3.073-5.158
			C568.942,147.417,575.808,138.206,584.844,130.57z M531.308,120.529c1.137-1.862,3.473-2.211,5.409-1.773
			c4.266,0.965,8.594,1.959,12.608,3.633c2.971,1.239,5.876,2.489,9.037,3.085c3.896,0.734,6.401,3.087,8.061,7.173
			c-3.685,7.095-7.954,14.269-12.638,21.179c-0.731,1.078-2.379,1.534-3.699,2.213c0.109-1.47,0.472-3.015,0.081-4.338
			c-0.897-3.046-0.139-5.378,1.981-7.552c0.493-0.506,0.706-1.405,0.799-2.154c0.215-1.732-0.69-3.016-1.996-4.021
			c-1.095-0.842-3.03-0.326-4.281,0.818c-2.052,1.878-1.507,4.355-1.688,6.864c-4.299,1.447-6.449,4.32-5.208,9.184
			c-1.966-0.897-1.123-2.679-1.79-3.839c-0.771-1.342-2.589-2.258-3.967-1.99c-1.904,0.37-3.769,2.565-3.272,4.317
			c0.394,1.389,1.319,2.627,2.054,3.919c-0.697-0.059-1.397-0.159-2.082-0.093c-4.718,0.453-5.33,1.11-5.586,5.822
			c-0.043,0.792-0.062,1.586-0.1,2.576c-1.102,0.912-2.45,1.779-3.465,2.938c-1.048,1.196-1.769,2.677-2.356,3.598
			c-2.989-0.416-4.923-0.864-6.865-0.902c-1.787-0.034-3.021,1.265-3.358,2.883c-0.204,0.978,0.111,2.666,0.795,3.112
			c1.97,1.283,4.328,1.956,6.369,3.149c1.253,0.732,2.204,1.979,3.326,3.027c-2.447,2.183-4.32,4.307-6.61,5.789
			c-3.282,2.125-6.855,3.805-10.328,5.629c-2.105,1.106-4.38,1.935-6.358,3.227c-3.723,2.431-4.221,4.514-1.727,8.981
			c1.63,2.92,1.49,5.271-0.758,7.56c-2.089,2.127-3.052,4.518-2.754,7.581c0.306,3.146,0.193,6.333,0.272,9.914
			c1.395,1.03,3.039,2.099,4.47,3.401c0.359,0.327,0.198,1.989,0,2.044c-1.892,0.525-3.832,0.953-5.785,1.143
			c-0.643,0.062-1.655-0.478-1.989-1.043c-1.011-1.711-2.034-3.492-2.585-5.383c-2.015-6.913-4.047-13.833-5.655-20.846
			c-0.887-3.87-1.897-8.117-1.168-11.867c1.424-7.33,2.778-15.037,10-19.633c3.023-1.924,5.744-4.315,8.713-6.332
			c5.102-3.465,8.941-7.916,11.567-13.517c1.009-2.15,2.51-4.083,3.892-6.04c3.249-4.602,6.141-9.432,7.826-14.805
			C522.715,132.103,527.57,126.653,531.308,120.529z M497.116,249.017c-0.185,0.324-0.37,0.649-0.554,0.974
			c-0.747-0.77-1.495-1.54-2.242-2.31c0.307-0.215,0.588-0.549,0.926-0.623C496.723,246.734,497.268,247.329,497.116,249.017z
			 M471.212,216.721c0.592,2.283,1.205,4.535,1.728,6.808c0.065,0.279-0.311,0.922-0.546,0.956c-0.694,0.1-1.556,0.216-2.105-0.101
			c-1.439-0.83-2.468-2.124-1.936-3.895C468.772,219.091,468.932,217.384,471.212,216.721z M469.799,162.566
			c0.231,0.033,0.571-0.016,0.669,0.117c0.1,0.133,0.156,0.299,0.204,0.471C470.381,162.958,470.09,162.762,469.799,162.566z
			 M471.476,165.556c-0.4-0.444-0.365-1.279-0.47-1.989c4.026-0.455,7.358,1.555,10.811,3.126c0.764,0.348,0.609,2.379-0.207,3.024
			c-2.069,1.637-3.844,1.936-5.185,0.716C474.712,168.875,473.024,167.274,471.476,165.556z M508.288,114.647
			c0.979-1.048,3.328-1.166,4.338-0.235c1.791,1.648,3.402,3.471,3.814,5.926c0.254,1.513,0.603,3.465-0.093,4.609
			c-4.178,6.864-6.736,14.459-10.192,21.639c-1.907,3.962-4.281,7.684-7.691,10.576c-0.534,0.453-1.508,0.734-2.166,0.587
			c-0.585-0.13-1.313-0.891-1.46-1.499c-1.031-4.251-1.927-8.534-2.983-13.337c0.392-1.476,0.491-3.617,1.468-5.225
			c4.557-7.497,9.353-14.85,14.082-22.243C507.611,115.124,508.017,114.937,508.288,114.647z M499.834,102.088
			c0.985,0.503,1.816,0.72,2.351,1.241c1.47,1.432,1.809,3.014,1.028,4.184c-3.531,5.29-7.054,10.585-10.658,15.825
			c-0.343,0.499-1.316,0.968-1.84,0.835c-0.638-0.162-1.389-0.886-1.599-1.527c-0.487-1.487-1.382-3.373-0.87-4.564
			C490.91,111.888,494.137,105.993,499.834,102.088z M479.302,88.744c0.963-0.97,2.124-0.334,3.001,0.312
			c2.791,2.056,5.512,4.206,8.023,6.138c0.03,3.858-1.9,6.334-3.659,8.883c-0.684,0.992-2.36,0.957-2.8-0.139
			c-1.736-4.326-3.447-8.663-5.042-13.042C478.608,90.293,478.853,89.196,479.302,88.744z M467.63,97.805
			c3.435,3.192,3.768,5.998,4.27,8.704c0.208,1.119,0.142,2.397-1.261,2.766c-1.265,0.332-3.978-1.143-3.919-2.115
			C466.882,104.476,467.225,101.802,467.63,97.805z M464.9,117.132c3.138,0.963,6.186,1.759,9.127,2.842
			c2.484,0.915,3.359,3.129,3.75,5.59c0.327,2.052-1.25,3.969-3.339,3.747c-3.531-0.375-7.052-0.859-10.566-1.38
			c-1.698-0.252-2.704-1.685-2.54-3.415C461.559,122.133,462.011,119.828,464.9,117.132z M460.448,136.652
			c7.114-0.619,13.274,0.583,19.782,3.456c2.9,4.354,4.624,9.523,4.179,15.309c-0.043,0.559-0.916,1.115-1.497,1.546
			c-0.277,0.205-0.797,0.218-1.169,0.138c-1.563-0.333-3.137-0.65-4.66-1.124c-5.297-1.647-10.574-3.357-16.052-5.104
			C459.574,145.963,459.113,141.406,460.448,136.652z M447.034,213.24c0.244-3.989,0.64-7.908,1.713-11.827
			c1.582-5.774,2.475-11.733,3.798-17.583c0.696-3.077,1.682-6.088,2.884-10.359c6.143,3.232,9.558,7.034,12.422,11.392
			c1.383,2.104,1.622,4.442,0.888,6.893c-1.49,4.98-2.71,10.052-4.426,14.952c-4.05,11.561-2.35,11.722-15.805,10.74
			C446.889,216.428,446.935,214.845,447.034,213.24z M457.058,231.693c6.674,3.791,12.805,8.192,17.319,14.545
			c1.621,2.281,3.275,4.538,4.933,6.792c2.175,2.957,4.714,5.53,8.375,6.49c2.829,0.741,4.986,2.415,7.171,4.206
			c4.336,3.555,8.676,7.12,13.199,10.429c3.544,2.592,7.211,5.098,11.092,7.132c11.732,6.149,22.656,13.582,33.742,20.761
			c12.807,8.293,19.876,20.547,23.895,34.854c0.536,1.908,0.783,3.94,0.867,5.927c0.427,10.027,0.137,19.929-2.768,29.727
			c-3.381,11.401-9.577,20.069-20.718,24.883c-7.333,3.168-14.581,6.535-21.745,9.758c-2.174-0.974-1.476-2.76-1.264-4.091
			c0.552-3.462,2.403-6.783,0.901-10.422c1.587-2.978,1.317-5.96,0.738-9.223c-0.374-2.106,1.859-4.385,0.363-6.859
			c-0.336-0.555-0.4-1.921-0.086-2.121c3.332-2.117,3.227-6.398,5.79-8.925c0.459-0.452,1.285-0.532,1.972-0.752
			c0.537,0.958,0.956,2.043,1.725,2.748c1.699,1.56,3.737,1.432,5.34-0.132c1.286-1.255,1.765-3.031,0.606-4.301
			c-2.183-2.39-2.408-5.149-1.536-7.784c1.467-4.435,0.429-8.612-0.315-12.908c-0.296-1.71-1.199-2.911-2.334-4.04
			c-1.276-1.269-1.316-2.801-1.124-4.441c0.199-1.7-0.291-3.353-1.701-4.234c-3.68-2.301-3.709-5.694-3.595-9.461
			c0.106-3.484-1.669-5.163-5.344-4.605c-3.113,0.473-5.488-0.172-7.687-2.116c-1.259-1.113-2.105-2.578-1.183-4.203
			c1.588-2.799,1.053-5.259-0.469-7.883c-1.06-1.829-2.204-3.334-4.38-3.671c-3.377-0.523-6.163-1.652-6.803-5.572
			c-0.114-0.699-0.756-1.461-1.364-1.904c-2.887-2.104-5.976-3.949-8.745-6.191c-2.764-2.239-6.154-1.21-9.14-2.195
			c0.37-0.742,0.71-1.426,1.052-2.109c0.771-1.539,0.856-3.071-0.354-4.399c-1.245-1.367-2.727-1.394-4.324-0.526
			c-1.024,0.557-2.1,1.036-3.195,1.435c-0.27,0.098-0.875-0.156-1.029-0.422c-0.371-0.637-0.955-1.525-0.757-2.047
			c0.557-1.47,1.579-2.758,2.209-4.208c0.854-1.965-0.107-4.182-2.461-4.523c-2.645-0.383-4.312-1.327-5.439-3.784
			c-0.401-0.874-1.845-1.665-2.886-1.772c-2.371-0.243-4.792-0.121-7.185,0.005c-2.583,0.136-5.071-0.607-6.476-2.531
			c-2.826-3.869-6.729-3.673-10.847-3.529c-0.779-1.458-1.465-2.852-2.253-4.187c-1.123-1.901-2.864-2.696-5.035-2.498
			c-2.11,0.193-3.909,1.392-3.909,3.832c0,4.073-1.897,5.82-5.558,6.435c-1.18,0.198-2.311,0.683-3.489,0.895
			c-0.76,0.137-1.566,0.016-2.352,0.01c-0.606-0.504-1.358-0.906-1.79-1.529c-1.116-1.612-1.735-3.772-3.994-4.141
			c-2.929-0.478-6.243,0.083-7.591,2.506c-2.296,4.124-6.087,4.63-9.824,5.587c-1.112,0.285-2.504-0.367-3.537,0.023
			c-1.424,0.538-2.746,1.528-3.887,2.57c-0.85,0.777-1.343,1.944-1.693,2.477c-4.077,0.122-5.658-2.386-7.473-4.419
			c-0.4-0.448-0.431-1.617-0.137-2.207c0.522-1.046,1.255-2.14,2.191-2.802c7.821-5.533,15.078-11.93,24.426-15.082
			c3.76-1.267,7.285-3.297,10.811-5.179c6.474-3.455,13.635-4.408,20.651-5.894C450.327,229.121,453.772,229.827,457.058,231.693z
			 M438.102,164.444c0.565-0.718,2.227-1.24,3.085-0.948c3.977,1.353,5.736,3.732,5.478,8.189c-0.094,0.681-0.238,2.69-0.659,4.64
			c-2.448,11.351-4.929,22.696-7.505,34.019c-0.244,1.072-1.125,2.058-1.884,2.932c-0.492,0.567-3.015-0.662-4.076-1.878
			c-0.527-0.603-1.062-1.198-1.588-1.802c-3.412-3.919-4.451-8.184-2.904-13.353c2.638-8.812,4.773-17.773,7.285-26.624
			C435.858,167.767,436.906,165.964,438.102,164.444z M413.394,179.808c1.036-4.256,1.129-8.734,1.968-13.049
			c0.528-2.715,1.55-5.355,2.557-7.949c0.833-2.144,2.543-2.885,4.878-2.401c1.969,0.409,3.917,0.898,5.383,3.425
			c-0.924,9.471-4.552,18.862-6.893,28.538c-0.264,1.09-1.08,2.061-1.723,3.034c-0.197,0.297-0.669,0.412-1.241,0.741
			C414.316,189.013,412.041,185.367,413.394,179.808z M401.829,167.232c0.96-3.854,2.112-7.664,3.293-11.458
			c0.481-1.544,2.115-2.496,2.567-1.708c0.382,0.666,0.63,1.409,1.19,2.703c-0.875,4.568-1.814,9.659-2.868,14.727
			c-0.118,0.566-1.208,1.48-1.309,1.414c-0.934-0.614-2.06-1.257-2.514-2.19C401.702,169.721,401.558,168.318,401.829,167.232z
			 M389.308,152.663c0.36-0.523,1.305-0.643,1.983-0.946c2.972-0.156,4.008,1.313,2.823,4.355c-0.355,0.911-1.451,2.249-2.096,2.189
			C390.434,158.115,388.486,153.857,389.308,152.663z M378.327,157.285c4.686,2.963,7.925,7.033,9.662,12.448
			c-1.16,0.454-1.861,0.91-2.601,0.986c-3.349,0.346-6.196-1.201-8.898-2.828c-0.812-0.489-1.46-1.978-1.433-2.988
			C375.131,162.186,375.501,159.435,378.327,157.285z M372.758,182.622c0.066-1.551,0.429-3.089,0.845-5.922
			c6.864,1.321,12.675,2.435,18.484,3.559c4.622,0.895,6.281,4.357,7.086,8.424c0.098,0.495-0.658,1.526-1.213,1.705
			c-1.085,0.349-2.311,0.39-3.472,0.351c-4.764-0.158-9.524-0.438-14.288-0.588C373.424,189.937,372.485,189.056,372.758,182.622z
			 M381.939,213.798c-2.623-0.071-4.345-1.602-5.436-3.954c-1.364-2.939-2.087-5.997-1.642-9.219
			c0.09-0.652,0.802-1.591,1.385-1.729c1.52-0.359,3.136-0.528,4.699-0.451c6.731,0.333,13.454,0.808,20.183,1.175
			c2.918,0.159,5.427,1.067,7.225,3.479c1.416,1.899,2.882,3.769,4.177,5.749c1.488,2.276,0.307,5.119-2.193,5.515
			c-1.563,0.248-3.135,0.44-3.264,0.458c-1.848,0.109-2.257,0.208-2.638,0.144C396.979,213.711,389.448,214.002,381.939,213.798z
			 M384.034,223.485c0.083-0.468,1.217-0.955,1.931-1.067c1.569-0.245,3.226-0.563,4.758-0.312
			c8.709,1.423,17.441,1.439,26.205,0.805c0.268-0.019,0.784,0.324,0.807,0.539c0.078,0.728,0.056,1.486-0.069,2.208
			c-0.061,0.348-0.381,0.713-0.681,0.947c-5.972,4.686-6.75,4.965-14.786,5.522c-4.892,0.497-9.316,0.521-13.363-1.541
			c-1.7-0.866-3.233-2.289-4.451-3.778C383.779,226.066,383.843,224.566,384.034,223.485z M283.319,460.064
			c-3.36-8.016-3.706-16.387-2.534-24.801c0.771-5.535,2.242-10.975,3.471-16.441c0.35-1.557,1.012-3.041,1.429-4.586
			c1.925-7.137,0.749-13.446-4.829-18.702c-4.374-4.121-8.507-8.443-12.009-13.402c-4.491-6.359-5.792-12.917-3.316-20.418
			c2.408-7.294,5.276-14.256,10.364-20.14c6.553-7.577,12.988-15.257,19.614-22.769c6.219-7.05,10.487-15.042,12.728-24.178
			c0.601-2.449,0.664-4.737-0.283-7.036c-0.914-2.219-1.619-4.593-2.916-6.57c-3.221-4.909-3.981-10.325-4.363-16.006
			c-0.293-4.343,0.668-7.888,4.073-10.669c0.308-0.251,0.613-0.544,0.816-0.879c5.178-8.527,13.401-9.671,22.081-8.395
			c7.505,1.103,14.999,2.784,22.233,5.054c4.889,1.534,9.596,4.114,13.889,6.97c6.663,4.433,12.701,9.71,18.584,15.198
			c8.222,7.671,12.777,17.29,16.222,27.649c0.746,2.241-0.587,3.63-3.187,3.479c-0.398-0.023-0.79-0.187-1.185-0.192
			c-3.199-0.039-6.415-0.269-9.594-0.02c-3.404,0.267-6.5,0.439-7.563-3.767c-2.39-1.434-4.653-3.187-7.209-4.202
			c-2.038-0.809-4.433-0.719-6.898-1.06c1.192-0.364,2.404-0.479,3.317-1.064c2.238-1.434,2.441-4.863,0.472-6.124
			c-2.631-1.686-5.831-2.183-8.15-4.709c-1.801-1.962-4.236-1.094-5.935,1.42c-0.218,0.323-0.294,0.739-0.454,1.104
			c-0.464,1.06-0.869,2.365-2.412,1.651c-0.616-0.285-1.49-1.164-1.408-1.623c0.755-4.237-3.005-7.318-2.882-11.418
			c0.014-0.444-1.99-1.391-2.982-1.298c-0.976,0.091-2.461,1.06-2.668,1.904c-0.66,2.675-1.791,5.804-0.982,8.152
			c1.622,4.709-0.92,7.417-3.337,10.507c-2.295,0.781-3.452-1.55-5.275-1.941c-1.073-0.23-2.423-0.193-3.383,0.271
			c-2.501,1.209-2.636,3.658-0.44,5.738c0.566,0.536,1.33,0.862,2.177,1.393c0.141,2.43-2.785,2.1-3.539,3.699
			c-0.678,1.438-1.405,2.852-2.072,4.295c-0.698,1.509-1.711,2.652-3.307,3.263c-4.308,1.649-5.899,4.961-6.055,9.398
			c-0.052,1.464-1.035,2.909-1.671,4.329c-0.144,0.322-0.611,0.498-1.12,0.888c-0.949-0.387-2.045-0.75-3.064-1.267
			c-2.024-1.028-3.977-0.865-5.484,0.727c-1.16,1.227-1.137,2.912-0.353,4.468c0.36,0.715,0.893,1.36,1.155,2.104
			c0.757,2.143-0.556,3.494-3.203,3.318c-1.178-0.078-2.359-0.413-3.523-0.349c-1.473,0.08-3.054,1.681-3.188,3.136
			c-0.158,1.717,0.475,3.062,2.165,3.815c1.062,0.473,2.066,1.077,3.021,1.584c-0.109,4.83-2.162,7.676-7.041,8.234
			c-1.813,0.208-2.582,1.783-2.737,3.46c-0.172,1.85,1.357,3.285,3.812,3.7c0.773,0.13,1.593-0.027,2.373,0.081
			c0.284,0.039,0.754,0.502,0.724,0.712c-0.095,0.668-0.2,1.607-0.646,1.886c-0.601,0.374-1.572,0.091-2.299,0.34
			c-1.089,0.372-2.34,0.737-3.083,1.521c-0.733,0.773-1.191,2.042-1.278,3.132c-0.113,1.394,1.111,2.11,2.318,2.283
			c1.565,0.224,3.192,0.025,4.749,0.272c0.452,0.072,0.83,1.023,1.085,1.636c0.07,0.167-0.4,0.79-0.678,0.831
			c-1.535,0.224-3.226,0.011-4.583,0.597c-0.879,0.379-1.531,1.8-1.827,2.879c-0.36,1.313,1.261,2.941,2.695,3.466
			c2.532,0.925,4.691-0.388,7.161-0.971c0.471,1.045,1.459,2.173,1.337,3.166c-0.405,3.323,0.089,6.218,1.945,9.112
			c0.682,1.062,0.461,3.24-0.172,4.494c-1.25,2.476-3.117,4.633-4.652,6.973c-3.407,5.191-0.594,11.273,5.808,12.579
			c0.755,0.154,1.677-0.109,2.279,0.24c0.349,0.202,0.529,1.565,0.241,1.845c-1.125,1.094-2.578,1.852-3.7,2.948
			c-1.267,1.238-1.226,3.326-0.11,4.309c0.595,0.524,1.223,1.034,1.904,1.433c1.677,0.981,4.019,1.584,3.328,4.197
			c-0.497,1.88-2.551,1.389-3.974,1.817c-0.38,0.114-0.76,0.242-1.123,0.401c-1.353,0.591-2.995,2.633-2.619,3.62
			c0.402,1.055,1.138,2.053,1.946,2.858c0.52,0.518,1.431,0.647,2.17,0.944c1.344,0.541,1.231,1.632,1.301,2.842
			c0.253,4.341,0.814,4.727,5.634,3.692c-1.733,3.494-4.106,6.439-7.11,8.998c-1.934,1.647-1.234,4.894,1.043,6.058
			c1.776,0.908,3.596,1.772,5.476,2.429c3.313,1.159,6.138-1.776,5.316-5.44c-0.255-1.134-0.809-2.255-0.792-3.375
			c0.009-0.591,0.853-1.37,1.503-1.69c0.534-0.263,1.555-0.234,1.986,0.121c1.525,1.253,3.388,2.457,4.21,4.128
			c1.617,3.29,3.986,4.781,7.519,4.995c1.561,0.095,3.095,0.634,4.986,1.046c1.963-1.911,3.911-3.809,6.206-6.044
			c0.69,0.799,1.685,1.471,1.966,2.367c0.827,2.63,2.262,4.177,5.179,3.761c1.581-0.225,3.139-0.676,4.724-0.785
			c0.716-0.049,1.494,0.444,2.202,0.78c0.33,0.157,0.791,0.524,0.791,0.796c0,0.705-0.013,1.876-0.389,2.046
			c-7.246,3.272-14.284,7.183-22.594,7.239c-2.836,0.019-5.351,1.148-7.747,2.854c-5.184,3.691-11.255,4.309-17.262,3.302
			c-4.693-0.787-9.45-2.151-13.732-4.194C288.937,469.993,285.558,465.406,283.319,460.064z M312.31,442.08
			c-0.152,0.192-0.268,0.482-0.464,0.552c-0.117,0.042-0.247,0.052-0.375,0.064C311.751,442.491,312.031,442.285,312.31,442.08z
			 M308.202,401.743c-0.278,0.614-0.558,1.226-0.838,1.839c-0.379-0.477-1.157-1.087-1.051-1.401
			c0.194-0.577,0.907-0.981,1.404-1.456C307.879,401.064,308.04,401.403,308.202,401.743z"/>
		<path fill="#2B2B2B" d="M945.432,412.73c-1.434-5.944-4.003-11.232-7.925-15.968c-3.32-4.008-6.102-8.457-9.34-12.537
			c-1.98-2.495-4.254-4.792-6.613-6.938c-2.117-1.925-5.539-2.016-7.845-0.525c-2.689,1.739-5.175,3.886-8.039,5.24
			c-6.13,2.899-12.241,5.547-19.498,3.152c-4.089-1.349-8.675-1.193-13.054-1.717c-1.827,1.106-3.731,1.915-5.211,3.209
			c-9.36,8.177-18.965,16.114-27.847,24.788c-15.207,14.852-30.386,29.703-46.836,43.2c-2.474,2.03-4.696,4.366-7.04,6.555
			c-11.42,10.67-22.616,21.595-34.332,31.929c-10.21,9.005-21.759,16.437-31.329,26.242c-1.382,1.416-3.25,2.343-4.819,3.591
			c-9.096,7.231-18.169,14.49-27.25,21.739c-3.142,4.607-7.647,5.191-12.755,4.641c-5.238-0.564-10.289-1.517-15.006-4.003
			c-2.477-1.306-5.068-2.426-7.679-3.444c-3.84-1.497-8.495,1.14-9.221,5.224c-0.349,1.964-0.446,3.983-0.519,5.983
			c-0.368,10.015-0.608,20.035-1.081,30.045c-0.131,2.774-0.927,5.514-1.377,8.276c-0.406,2.49-1.665,4.446-3.513,6.118
			c-4.758,4.308-9.525,8.608-14.2,13.005c-5.251,4.939-10.906,9.567-15.464,15.091c-4.621,5.6-9.682,10.69-14.783,15.786
			c-10.494,10.485-20.981,20.977-31.516,31.42c-1.989,1.972-4.046,3.93-6.312,5.56c-10.787,7.764-19.908,17.427-29.54,26.438
			c-18.145,16.976-35.526,34.768-53.236,52.21c-1.428,1.406-2.966,2.698-4.412,4.087c-4.329,4.157-8.677,8.296-12.943,12.516
			c-4.552,4.503-8.969,9.073-14.236,12.863c-5.18,3.726-10.094,7.986-14.471,12.628c-9.077,9.628-17.993,19.436-26.48,29.584
			c-13.134,15.702-27.41,30.348-41.182,45.458c-3.769,4.135-8.224,7.636-12.177,11.613c-9.591,9.652-18.452,20-28.341,29.384
			c-3.739,3.548-6.682,7.968-9.789,12.139c-2.101,2.82-1.749,6.032-0.614,9.186c0.635,1.765,3.378,3.317,4.864,2.567
			c7.506-3.787,15.434-6.968,22.351-11.64c11.601-7.838,23.407-15.522,33.447-25.47c1.41-1.397,3.049-2.646,4.772-3.631
			c8.453-4.832,15.513-11.291,22.198-18.285c4.417-4.622,8.995-9.056,14.944-11.936c3.188-1.543,6.164-3.885,8.659-6.43
			c7.335-7.482,16.017-13.318,23.9-20.121c4.848-4.184,10.082-7.932,14.789-12.261c3.562-3.276,7.165-6.394,11.332-8.863
			c1.72-1.019,3.529-2.001,4.978-3.346c10.589-9.829,23.712-16.49,33.736-27.026c1.088-1.143,2.601-1.872,3.857-2.868
			c6.908-5.477,13.806-10.964,20.688-16.472c4.38-3.506,8.726-7.056,13.09-10.583c4.055-3.277,8.601-6.109,12.055-9.928
			c4.908-5.426,10.719-9.641,16.373-14.091c8.489-6.683,17.49-12.705,25.616-19.866c1.484-1.308,3.3-2.233,4.939-3.371
			c5.919-4.111,11.877-8.168,17.727-12.375c8.458-6.081,16.539-12.741,25.317-18.309c11.875-7.532,23.036-15.979,34.178-24.491
			c2.215-1.692,4.499-3.293,6.832-4.995c7.409,3.63,14.752,6.468,22.849,7.251c3.487,0.337,6.962,1.88,10.201,3.394
			c3.615,1.689,7.12,3.734,10.373,6.045c4.449,3.161,9.009,2.652,13.753,1.259c1.141-0.335,2.622-2.456,2.535-3.794
			c-0.156-2.391-0.409-4.777-0.638-7.163c-0.536-5.582-1.419-11.154-1.562-16.745c-0.428-16.698,1.684-18.506,12.454-28.03
			c6.302-5.573,12.764-10.995,18.714-16.927c8.81-8.783,17.827-17.298,27.44-25.203c6.192-5.092,12.33-10.279,18.166-15.769
			c13.717-12.907,27.207-26.056,40.86-39.032c3.767-3.58,8.245-6.503,11.589-10.419c6.553-7.673,14.327-13.998,21.596-20.88
			c7.848-7.431,16.541-13.906,23.983-21.823c4.493-4.779,7.916-10.045,10.47-15.993c1.633-3.804,2.382-7.555,0.465-11.569
			c-0.85-1.779-1.126-3.859,0.65-6.872C939.074,427.424,942.899,420.566,945.432,412.73z M655.589,558.334
			c0.057-2.198,1.661-3.16,4.149-2.545c3.054,0.754,6.126,1.444,9.147,2.315c1.473,0.424,2.847,1.194,4.709,1.998
			c-1.286,1.527-2.173,2.811-3.292,3.845c-1.145,1.058-2.545,1.833-3.78,2.801c-1.233,0.965-2.448,1.965-3.581,3.043
			c-1.14,1.084-2.159,2.295-3.253,3.43c-1.077,1.117-2.021,2.469-3.87,2.342c-0.185-0.255-0.568-0.539-0.564-0.816
			C655.335,569.275,655.446,563.804,655.589,558.334z M476.293,795.792c-1.845,2.033-3.642,4.138-5.705,5.932
			c-0.692,0.602-1.935,0.571-3.001,0.743c0.872-2.113,1.533-4.365,2.769-6.237c0.777-1.176,2.46-1.845,3.859-2.461
			c0.419-0.185,1.309,0.509,1.876,0.941C476.318,794.884,476.452,795.617,476.293,795.792z M502.508,777.275
			c-1.388,1.369-2.798,3.106-4.53,3.647c-2.968,0.927-6.18,1.078-9.298,1.491c-0.315,0.042-0.925-0.299-0.989-0.562
			c-0.162-0.669-0.392-1.609-0.066-2.059c1.655-2.289,3.685-4.226,6.664-4.537c2.728-0.285,5.478-0.349,8.246-0.512
			C502.547,775.939,502.852,776.936,502.508,777.275z M506.142,766.682c-1.014-0.043-2.418,0.078-2.387-1.372
			c0.029-1.349,2.25-2.89,3.378-2.451c0.504,0.196,0.724,1.121,1.067,1.705C508.12,765.869,507.554,766.742,506.142,766.682z
			 M523.758,758.228c-3.052,1.623-3.689,5.093-6.451,6.999c-0.661-2.35-1.295-4.605-1.949-6.931
			c1.315-3.032,3.847-4.897,6.722-6.313c0.397-0.196,1.582,0.392,1.855,0.906C524.88,754.67,525.766,757.16,523.758,758.228z
			 M498.342,756.064c-5.046,4.558-10.257,8.934-15.282,13.514c-5.323,4.853-10.366,10.023-15.817,14.724
			c-3.591,3.097-7.045,6.63-12.022,7.638c-0.85,2.816-3.156,4.369-5.297,6.05c-0.272,0.214-0.82,0.331-1.12,0.206
			c-0.913-0.382-1.053-1.094-0.449-1.902c1.632-2.186,3.163-4.502,6.154-5.026c3.367-5.591,8.015-9.949,13.516-13.305
			c3.845-2.346,6.927-5.278,9.595-8.883c2.127-2.873,4.619-5.545,7.28-7.939c4.172-3.755,8.43-7.385,11.707-12.008
			c0.688-0.971,1.479-1.968,2.445-2.626c7.658-5.216,12.941-13.04,20.394-18.481c1.605-1.172,3.095-2.567,4.412-4.059
			c8.495-9.626,18.354-17.857,27.404-26.91c9.616-9.62,19.417-19.095,28.449-29.246c7.744-8.703,16.482-16.334,24.594-24.624
			c6.428-6.569,13.445-12.563,20.218-18.793c1.471-1.353,2.855-2.906,4.557-3.882c5.256-3.015,9.838-6.809,14.149-11.032
			c1.391-1.363,3.248-2.386,5.072-3.113c0.859-0.342,2.49,0.023,3.177,0.685c4.1,3.944,6.236,9.173,9.283,14.205
			c-9.694,9.305-18.852,18.669-29.435,26.683c-12.42,9.404-24.535,19.27-35.632,30.302c-4.245,4.221-8.872,8.072-13.458,11.933
			c-5.509,4.638-11.156,9.114-16.755,13.645c-1.556,1.259-3.011,2.738-4.755,3.653c-9.66,5.061-17.255,12.984-26.337,18.842
			c-2.337,1.508-4.307,3.577-6.497,5.324C517.904,739.612,507.836,747.488,498.342,756.064z M577.573,709.418
			c-0.619,0.031-1.238,0.063-1.857,0.094c0.29-0.487,0.581-0.973,0.871-1.46C576.915,708.508,577.244,708.963,577.573,709.418z
			 M545.453,732.868c-0.189,0.677-0.407,1.755-0.844,1.879c-1.255,0.357-2.587,0.442-3.903,0.583
			c1.019-0.937,2.027-1.887,3.075-2.792c0.256-0.221,0.693-0.388,1.008-0.337C545.053,732.244,545.498,732.706,545.453,732.868z
			 M536.294,753.427c-3.752-2.557-3.822-6.209-4.771-9.067c2.302-4.19,5.913-6.054,8.787-8.674c0.128,0.27,0.261,0.54,0.239,0.797
			c-0.377,4.348,1.636,7.15,5.436,8.825C543.514,749.073,539.362,750.672,536.294,753.427z M559.605,734.702
			c-3.065,3.011-6.015,6.733-11.07,7.494c0.422-2.726,2.346-4.566,3.852-6.703c0.804-1.141,1.443-3.101,1.02-4.286
			c-2.065-5.782,1.122-8.595,5.471-10.926C560.284,724.849,560.086,729.525,559.605,734.702z M571.745,725.737
			c-1.707,1.463-3.336,0.792-4.139-1.627c-0.122-0.368-0.06-0.798-0.189-1.162c-1.137-3.21-1.783-3.664-5.144-3.47
			c-0.922,0.054-1.839,0.207-2.756,0.349c2.278-1.764,4.562-3.52,6.829-5.299c2.631-2.064,5.431-3.789,8.708-4.592
			c-0.366,0.51-0.724,1.027-1.116,1.517c-1.074,1.343-1.467,2.854-0.706,4.405c0.828,1.686,2.42,1.75,4.052,1.459
			c1.071-0.191,2.141-0.39,3.21-0.586C578.436,720.557,574.934,723.003,571.745,725.737z M666.702,655.544
			c-14.878,9.46-29.133,19.81-43.449,30.069c-7.159,5.13-13.912,10.822-20.926,16.158c-6.057,4.608-12.198,9.108-18.371,13.561
			c-0.893,0.644-2.143,0.793-3.242,1.151c-0.918-2.292-1.835-4.583-2.753-6.875c3.143-0.213,6.259-0.495,8.482-3.204
			c0.755-0.921,2.157-1.818,2.179-2.752c0.175-7.369,5.979-10.957,10.284-15.447c2.179-2.274,4.982-4.033,7.712-5.678
			c4.892-2.949,8.929-6.729,12.265-11.33c5.455-7.525,12.59-13.373,19.819-19.001c3.797-2.956,7.484-5.961,11.003-9.238
			c4.979-4.635,10.18-9.032,16.455-12.434c6.067,3.92,8.193,10.355,10.952,16.282C674.359,651.117,670.355,653.222,666.702,655.544z
			 M699.749,610.647c-1.005,0.528-2.146,0.799-3.646,1.339c-0.866-1.19-1.968-2.308-2.596-3.648
			c-1.364-2.91-0.795-4.864,1.758-7.284c1.136-1.077,3.161-1.145,4.177,0.065c0.976,1.164,1.917,2.443,2.505,3.828
			C703.07,607.597,702.371,609.27,699.749,610.647z M710.216,596.422c-3.544,0.544-5.359-2.094-7.625-3.497
			c-3.369-2.087-6.714-2.318-10.331-1.302c-9.776,2.745-12.848,7.673-10.953,17.932c0.573,3.1,2.098,6.02,3.141,9.038
			c0.569,1.648,0.019,3.18-0.887,4.518c-0.32,0.472-1.571,0.96-1.706,0.812c-1.327-1.458-2.706-2.932-3.696-4.621
			c-3.641-6.213-7.188-12.47-11.983-17.914c-2.496-2.834-3.468-6.248-3.393-9.991c0.04-2.033,0.369-3.958,1.696-5.612
			c6.598-8.229,14.642-14.679,24.031-19.441c1.522-0.772,3.223-0.492,4.434,0.742c4.481,4.567,8.94,9.159,13.291,13.85
			C710.354,585.376,711.18,590.691,710.216,596.422z M731.6,656.511c-4.237-1.517-8.69-3.111-14.962-5.357
			c4.7-3.588,7.795-5.968,10.922-8.306c0.276-0.207,0.761-0.136,1.148-0.194c3.094,5.578,4.065,8.592,4.029,12.8
			C732.735,655.702,732.23,655.944,731.6,656.511z M747.522,557.1c0.25-0.587,0.499-1.173,0.748-1.76
			C749.736,556.963,748.681,557.063,747.522,557.1z M763.285,548.782c-3.515,0.862-6.718-0.263-8.217-2.884
			c-1.863-3.258-1.688-7.506,0.561-9.84c1.078-1.119,2.378-2.034,3.622-2.982c1.117-0.852,3.422-0.56,4.325,0.406
			c2.473,2.646,4.219,5.617,4.33,9.35C768.108,545.554,766.148,548.08,763.285,548.782z M771.295,521.983
			c0.359,1.941,2.077,3.312,4.326,3.26c1.178-0.028,2.349-0.336,3.551-0.521c1.722,2.501,0.356,4.491-0.919,6.424
			c-0.91,1.38-3.102,1.67-4.167,0.649c-0.862-0.826-1.657-1.722-2.501-2.568c-1.13-1.133-2.343-2.19-3.409-3.38
			c-3.679-4.111-9.308-4.303-14.255-1.417c-5.1,2.976-8.691,7.24-9.977,12.938c-0.651,2.883-1.458,5.103-3.888,6.961
			c-0.989,0.756-1.075,2.83-1.332,4.346c-0.124,0.727,0.306,1.549,0.492,2.326c1.319,5.543,1.556,5.803,7.839,6.292
			c-1.773,2.664-4.429,4.107-7.277,5.377c-2.522,1.125-5.03,2.351-7.337,3.851c-0.833,0.542-1.236,1.969-1.507,3.073
			c-0.171,0.694,0.175,1.571,0.447,2.308c1.813,4.924,1.841,9.919,0.789,14.997c-0.137,0.662,0.048,1.39,0.141,2.099
			c-2.426-0.506-3.931-2.357-5.527-4.002c-5.295-5.455-10.601-10.901-15.751-16.491c-4.602-4.996-9.219-10.01-12.566-15.94
			c-0.285-2.449,1.648-3.488,2.937-4.885c1.085-1.175,2.157-2.419,3.444-3.342c15.986-11.473,29.428-25.891,44.51-38.41
			c6.764-5.614,12.958-11.949,19.948-17.249c11.517-8.732,21.5-19.097,32.194-28.704c8.607-7.732,17.93-14.661,26.687-22.233
			c8.432-7.292,16.799-14.683,23.542-23.701c1.639-2.192,3.898-3.949,5.999-5.758c2.113-1.819,4.69-3.182,6.515-5.233
			c2.794-3.139,6.453-4.659,10.023-6.426c3.385-1.675,6.936-1.688,10.552-0.901c4.62,1.005,6.879,3.741,6.626,8.428
			c-0.215,3.98-0.666,7.947-1.004,11.822c-2.118,1.722-3.783-0.377-5.586-0.212c-1.899,0.173-3.76,1.842-4.044,3.812
			c-0.285,1.979,1.003,3.567,3.337,3.987c0.713,0.128,1.458,0.08,2.192,0.088c0.193,2.582-1.373,4.272-3.335,6.091
			c-0.832-0.611-1.844-1.122-2.543-1.91c-2.014-2.269-4.416-1.841-6.316-0.175c-1.758,1.543-1.829,3.354-0.495,5.285
			c0.446,0.645,0.756,1.407,1.014,2.155c0.346,1.002-0.702,2.802-1.559,2.78c-0.795-0.02-1.628,0.071-2.376-0.134
			c-5.344-1.468-10.296,0.154-15.195,1.933c-3.667,1.331-5.726,4.125-6.689,7.874c-1.238,4.822-0.004,9.345,1.392,13.87
			c-2.694-0.199-5.387-0.418-8.083-0.588c-2.16-0.137-5.018,1.505-5.764,3.578c-0.94,2.613-1.462,5.379-2.432,7.978
			c-1.136,3.042-3.677,4.523-6.554,3.95c-1.949-0.388-3.941-0.775-5.912-0.77c-1.643,0.004-2.967,0.986-3.602,2.656
			c-0.566,1.488-0.121,3.394,1.163,4.26c0.652,0.44,1.515,0.56,2.183,0.981c1.288,0.81,3.134,1.471,2.453,3.474
			c-0.671,1.974-2.553,4.115-4.278,3.551c-5.616-1.834-9.574,3.179-14.787,2.927c-2.573-0.125-3.413,2.994-1.744,5.419
			c0.674,0.978,1.516,1.84,2.524,3.046c-2.622,1.788-5.138,3.503-7.496,5.111c0.27,1.271,0.362,2.065,0.61,2.805
			c1.173,3.501,1.042,4.111-1.768,5.742c-0.569,0.331-1.422,0.26-2.13,0.205c-0.178-0.014-0.475-0.711-0.426-1.052
			c0.334-2.332,0.798-4.647,1.114-6.981c0.193-1.426-1.105-3.1-2.61-3.596c-1.939-0.64-4.566,0.415-4.958,2.164
			c-0.43,1.923-0.466,3.937-0.932,5.849c-0.389,1.591-1.413,2.918-3.113,3.326c-3.105,0.746-6.248,1.334-9.361,2.051
			C772.349,517.958,770.948,520.1,771.295,521.983z M873.109,450.967c-0.328,1.321-0.293,2.262-0.743,2.789
			c-1.275,1.49-2.574,3.078-4.189,4.128c-1.901,1.237-4.042,2.998-6.516,1.392c-2.561-1.663-3.21-4.449-3.191-7.275
			c0.007-1.08,0.557-2.531,1.366-3.154c1.857-1.428,3.996-2.51,6.081-3.617c1.229-0.653,3.454-0.097,4.305,1.107
			C871.35,447.931,872.298,449.651,873.109,450.967z M842.974,473.137l-0.828,0.386l0.033-0.836L842.974,473.137z M814.497,499.773
			c-0.001,0.197-0.615,0.554-0.949,0.555c-0.755,0.001-1.52-0.134-2.264-0.289c-0.977-0.204-1.508-0.932-1.057-1.786
			c0.302-0.572,1.158-0.852,1.767-1.262c0.716,0.302,1.576,0.451,2.094,0.954C814.472,498.316,814.5,499.147,814.497,499.773z
			 M784.868,522.575c0.465-0.999,0.755-2.077,1.406-2.85c0.388-0.461,1.4-0.698,2.027-0.559c0.471,0.104,1.21,1.212,1.078,1.446
			c-0.552,0.97-1.277,1.936-2.174,2.569C786.834,523.442,785.869,522.861,784.868,522.575z M786.457,572.129
			c-0.545,0.599-1.091,1.199-1.637,1.798C785.039,573.038,785.497,572.361,786.457,572.129z M786.977,571.711
			c-0.142-1.414,0.521-2.177,1.934-2.333C788.835,570.628,788.082,571.315,786.977,571.711z M789.154,569.109
			c-0.079-1.432,0.759-2.068,2.047-2.315C791.309,568.261,790.454,568.88,789.154,569.109z M916.152,451.8
			c-2.691,3.473-5.447,6.944-8.558,10.032c-10.224,10.147-20.736,20.005-30.911,30.199c-9.339,9.355-19.157,18.055-29.582,26.235
			c-8.123,6.373-15.877,13.361-23.184,20.835c-8.933,9.138-18.863,17.303-28.366,25.884c-1.164,1.051-2.499,1.678-4.089,1.599
			c0.842-1.712,1.413-3.663,2.634-5.036c4.767-5.366,8.83-11.458,15.13-15.317c0.336-0.206,0.703-0.451,0.909-0.772
			c3.265-5.107,7.403-9.171,12.378-12.8c4.45-3.247,8.298-7.417,12.673-10.927c4.024-3.228,7.159-7.446,11.302-10.69
			c6.596-5.165,12.609-11.069,19.155-16.303c10.633-8.502,20.696-17.554,29.811-27.697c5.614-6.247,11.67-12.099,17.582-18.075
			c0.751-0.76,1.834-1.191,2.73-1.754C917.168,448.795,917.122,450.549,916.152,451.8z M926.369,419.79
			c-6.002-6.66-10.89-12.909-17.079-17.908c-1.64-1.325-2.114-3.283-1.301-5.372c0.431-1.107,0.827-2.234,1.346-3.299
			c2.191-4.497,5.985-4.767,9.081-0.616c0.94,1.261,1.796,2.613,2.493,4.021c1.759,3.552,3.635,6.978,6.131,10.124
			C929.834,410.261,929.581,412.742,926.369,419.79z"/>
		<path fill="#2B2B2B" d="M719.42,1009.383c-5.311-7.011-9.779-14.66-14.62-22.027c-1.828-2.781-2.611-5.83-2.279-9.144
			c0.239-2.386,0.344-4.805,0.829-7.144c1.551-7.483,2.188-15.048,2.476-22.667c0.12-3.191,0.341-6.407,0.899-9.544
			c0.483-2.712-0.507-4.625-2.248-6.442c-2.257-2.354-4.801-4.222-7.973-5.167c-9.256-2.759-17.617-7.446-26.278-12.162
			c-0.893-1.573-2.001-3.248-2.839-5.049c-5.231-11.241-10.404-22.526-15.836-33.654c-5.529-11.327-3.776-10.383,1.432-18.171
			c0.419-0.627,0.457-1.509,0.677-2.292c-1.158-4.516-4.03-7.726-7.896-10.147c-3.73-2.335-7.482-4.635-10.764-6.666
			c-2.323-4.444-4.477-8.286-6.354-12.259c-1.185-2.508-2.616-5.166-2.796-7.834c-0.646-9.566-4.156-18.826-2.815-28.619
			c0.457-3.34-1.919-6.003-5.481-6.837c-4.676-1.095-9.378-2.238-14.135-2.798c-8.88-1.046-16.643,1.393-22.636,8.405
			c-1.823,2.133-4.044,3.979-5.588,6.287c-8.11,12.119-8.935,8.623-5.328,22.939c4.396,17.452,8.119,35.138,15.125,51.872
			c2.149,5.131,3.315,10.674,4.947,16.078c-2.38,6.536-4.697,12.931-7.036,19.318c-1.936,5.286-1.334,6.703,4.154,9.253
			c2.543,1.181,5.069,2.472,7.731,3.307c3.93,1.232,5.895,3.882,6.599,7.744c2.082,11.435,5.624,22.515,8.239,33.82
			c1.353,5.849,2.46,11.754,3.675,17.635c0.51,2.467,0.123,4.804-1.247,6.904c-3.932,6.03-7.961,11.998-11.856,18.051
			c-1.944,3.021-3.731,6.148-5.495,9.28c-1.521,2.701-1.357,5.205,0.718,7.741c9.634,11.771,19.657,23.227,28.629,35.541
			c1.718,2.358,3.014,4.581,3.279,7.499c0.939,10.365,1.883,20.731,3.018,31.076c0.698,6.366,1.572,12.725,2.711,19.025
			c0.638,3.528,1.908,6.952,3.029,10.379c0.825,2.521,4.028,4.544,6.632,4.249c1.58-0.179,3.276-0.318,4.668-0.995
			c5.031-2.443,9.966-5.087,14.908-7.709c0.69-0.365,1.261-0.991,1.814-1.567c2.006-2.086,3.523-4.358,2.869-7.491
			c-0.899-4.31-1.741-8.632-2.617-12.947c-1.675-8.243-3.676-16.435-4.953-24.738c-1.52-9.889-2.4-19.875-3.609-29.813
			c-0.242-1.985-0.547-3.994-1.119-5.903c-1.967-6.566-3.014-13.267-3.48-20.093c-0.135-1.975-0.751-3.917-1.152-5.873
			c-0.641-3.123-1.351-6.233-1.918-9.369c-1.349-7.46-0.808-15.201-3.459-22.487c-0.523-1.436-0.145-3.182-0.3-4.774
			c-0.309-3.183-0.592-6.374-1.076-9.532c-1.151-7.512-2.461-15-3.596-22.515c-0.285-1.882-0.886-3.889,0.539-5.855
			c3.628,2.734,5.487,6.72,7.722,10.432c5.994,9.956,11.258,20.307,16.779,30.523c7.229,13.376,15.473,26.212,20.991,40.479
			c0.57,1.474,1.648,2.745,2.435,4.142c5.695,10.11,12.762,19.415,17.511,30.088c1.146,2.576,4.574,3.455,7.264,2.25
			c5.92-2.651,10.914-6.676,15.77-10.865c1.625-1.402,1.951-3.451,1.575-5.524C728.481,1027.103,725.702,1017.675,719.42,1009.383z
			 M595.902,908.645c-0.294,0.854-1.119,0.928-1.978,0.365c-1.884-1.233-2.333-3.743-0.942-5.074
			c0.215-0.206,0.675-0.156,1.022-0.223C595.786,904.409,596.646,906.484,595.902,908.645z M621.878,1034.765
			c-6.995-4.914-11.942-9.913-14.911-15.113c-2.368-4.147-2.815-8.248,0.211-12.347c2.377-3.218,4.595-6.554,6.982-9.764
			c0.365-0.492,1.403-0.959,1.877-0.777c0.632,0.242,1.241,1.058,1.467,1.755c0.615,1.893,1.219,3.828,1.48,5.792
			c1.264,9.508,2.431,19.028,3.565,28.553C622.621,1033.458,622.119,1034.12,621.878,1034.765z M646.114,1051.417
			c3.151,17.338,6.398,34.659,9.59,51.99c0.29,1.572,0.635,3.154,0.705,4.743c0.095,2.163-0.808,3.857-2.923,4.741
			c-0.739,0.309-1.439,0.713-2.182,1.01c-2.483,0.993-5.28-0.139-5.793-2.453c-1.038-4.681-2.404-9.346-2.845-14.091
			c-0.707-7.607-1.683-15.118-3.748-22.487c-0.537-1.917-0.703-3.947-0.945-5.936c-1.303-10.715-3.707-21.285-4.097-32.126
			c-0.1-2.776-0.78-5.54-1.3-8.289c-0.742-3.923-1.629-7.819-2.373-11.743c-2.385-12.569-3.434-25.348-6.629-37.815
			c-1.877-7.323-2.088-15.025-3.854-22.48c-2.948-12.444-6.018-24.863-8.587-37.409c-1.752-8.558-3.875-17.222-8.651-24.859
			c-0.828-1.323-1.337-2.942-1.62-4.493c-1.085-5.955-3.198-11.573-5.394-17.168c-3.962-10.096-6.889-20.465-8.62-31.185
			c-1.722-10.672-3.515-21.335-5.49-31.962c-0.864-4.652,1.053-7.729,4.626-10.194c0.989-0.682,1.971-1.488,3.082-1.858
			c5.683-1.89,11.388-3.719,17.128-5.426c1.694-0.504,4.68,1.184,4.928,2.593c1.457,8.284,2.913,16.57,4.23,24.877
			c0.236,1.49-0.181,3.084-0.303,4.719c-1.533-0.065-2.725-0.169-3.916-0.157c-4.849,0.049-6.31,1.587-7.002,6.212
			c-2.536,16.938,1.338,32.613,9.072,47.562c0.916,1.77,1.66,3.956,3.146,5.048c7.454,5.48,8.175,13.256,7.729,21.439
			c-0.115,2.111,0.708,3.871,1.082,5.8c1.523,7.865,2.867,15.765,4.253,23.656c0.346,1.972,0.339,4.047,0.952,5.925
			c2.016,6.183,2.171,12.617,2.934,18.977c0.571,4.762,1.431,9.488,2.168,14.23c0.493,3.167,1.191,6.315,1.466,9.501
			C638.935,1005.487,641.954,1028.528,646.114,1051.417z M630.377,875.022c-1.293,1.882-3.378,2.015-5.115,0.372
			c-1.439-1.361-2.99-2.714-4.037-4.36c-5.956-9.361-9.138-19.514-8.287-30.733c0.117-1.538,2.046-2.696,3.549-2.078
			c1.478,0.608,2.968,1.201,4.401,1.904c7.942,3.895,14.683,9.568,22.943,15.037C638.89,862.471,634.672,868.773,630.377,875.022z
			 M665.583,937.603c-1.03,0.387-1.831-0.86-1.521-2.322c0.215-1.014,0.953-1.447,1.808-0.897c0.552,0.356,0.821,1.154,1.216,1.754
			C666.592,936.646,666.183,937.378,665.583,937.603z M679.667,930.424c6.018,1.814,11.755,4.314,17.179,6.809
			c1.1,10.909,1.1,10.909-1.627,26.16c-3.352-2.205-4.259-3.874-17.625-32.566C678.304,930.63,679.07,930.244,679.667,930.424z
			 M715.275,1040.625c-0.578,0.775-2.47,0.852-3.281,0.216c-5.216-4.092-8.574-9.588-10.895-15.591
			c-3.778-9.771-8.921-18.826-13.784-28.039c-4.486-8.496-8.983-16.985-13.412-25.511c-1.107-2.131-2.135-4.334-2.899-6.604
			c-0.799-2.376-0.34-4.517,1.26-6.719c2.948-4.057,2.753-5.642-0.18-9.514c-0.467-0.618-1.225-1.007-1.788-1.563
			c-1.712-1.693-1.686-1.805,0.752-2.846c0.326-0.139,0.775,0.013,1.713,0.054c3.631,7.2,8.264,14.13,11.813,21.753
			c7.95,17.076,17.031,33.563,27.128,49.481c1.926,3.037,3.62,6.222,5.439,9.328C720.456,1030.733,718.87,1035.793,715.275,1040.625
			z"/>
		<path fill="#2B2B2B" d="M321.635,777.653c3.866-2.095,7.497-4.627,11.215-6.993c3.717-2.366,7.304-4.963,11.141-7.114
			c7.034-3.942,13.246-8.988,19.531-13.953c2.2-1.738,4.221-3.75,6.577-5.237c8.964-5.66,15.931-13.232,22.306-21.621
			c6.678-8.787,11.083-18.436,13.936-29.021c3.401-12.619,3.105-25.391,2.412-38.224c-0.197-3.654-1.22-7.08-2.861-10.359
			c-1.254-2.508-2.216-5.164-3.502-7.654c-1.639-3.175-3.474-6.249-5.334-9.562c2.453-4.723,5.976-8.518,9.642-12.191
			c1.982-1.986,4.087-3.848,6.097-5.808c2.391-2.332,3.544-5.29,4.146-8.505c0.659-3.524-1.705-7.36-5.172-8.475
			c-2.745-0.883-5.521-1.085-8.287-0.273c-4.765,1.4-8.796,3.956-11.459,8.232c-2.542,4.082-5.041,8.208-7.249,12.476
			c-5.139,9.935-5.743,9.44-15.858,8.715c-14.459-1.036-28.852-1.333-42.442,5.065c-0.698,0.329-1.562,0.353-2.357,0.415
			c-2.965,0.234-5.296,1.714-7.372,3.691c-1.743,1.66-3.349,3.478-5.194,5.011c-5.062,4.206-8.444,9.445-10.9,15.552
			c-9.236,22.962-8.853,22.339-7.738,45.542c0.887,18.444,3.775,36.671,9.229,54.406c2.121,6.895,4.04,13.852,6.205,20.731
			C310.357,778.889,315.553,780.95,321.635,777.653z M325.764,764.808c-0.635-0.505-1.269-1.01-1.904-1.514
			c0.356-1.451,0.635-2.927,1.083-4.35c1.539-4.895,3.056-9.8,4.8-14.623c0.256-0.708,1.694-0.989,2.999-1.69
			c1.359,4.595,2.579,8.72,3.828,12.943C333.648,759.836,328.418,760.636,325.764,764.808z M349.156,748.924
			c-1.464,1.006-3.585,0.96-4.27-0.215c-3.668-6.288-5.56-13.214-7.167-20.226c-0.258-1.124-0.226-2.475,0.152-3.553
			c1.166-3.325,1.847-6.967,4.939-9.286c0.645,0.536,1.541,0.899,1.685,1.457c2.396,9.283,4.777,18.572,6.939,27.912
			C351.783,746.526,350.576,747.948,349.156,748.924z M371.339,728.65c-3.595,3.063-6.18,7.257-10.794,9.899
			c-0.991-1.529-2.133-2.721-2.625-4.138c-3.417-9.851-5.434-20.042-7.244-30.291c-1.364-7.728,0.912-14.154,6.333-19.616
			c0.245-0.246,0.754-0.23,1.167-0.343c3.168,8.592,6.279,17.209,9.533,25.772c1.561,4.108,3.442,8.094,5.086,12.172
			C373.786,724.562,373.373,726.918,371.339,728.65z M383.635,643.932c1.559-1.643,5.107-1.61,6.331,0.155
			c0.671,0.966,1.426,1.963,1.755,3.062c2.39,7.972,4.414,16.017,3.976,24.453c-0.083,1.594-0.298,3.145-1.914,4.016
			c-5.873-7.116-8.584-15.854-12.177-24.125C380.384,648.684,381.578,646.099,383.635,643.932z M374.372,659.678
			c3.896,4.319,12.668,21.385,18.584,36.137c-2.448,6.053-5.708,11.958-9.639,17.497c-0.65,0.916-1.549,2.107-2.81,1.415
			c-0.932-0.512-1.733-1.568-2.199-2.565c-1.343-2.881-2.305-5.947-3.743-8.774c-4.207-8.266-6.02-17.254-8.21-26.14
			c-1.12-4.54-0.417-8.705,2.299-12.492c1.374-1.915,2.881-3.734,4.21-5.445C373.669,659.495,374.168,659.453,374.372,659.678z
			 M368.034,638.05c1.387,0.422,1.78,2.458,0.842,3.955c-0.873,1.394-1.936,2.627-3.609,2.745c-2.738,0.193-5.518,0.362-8.241,0.115
			c-5.882-0.533-11.751-1.258-17.597-2.105c-0.947-0.137-1.744-1.305-2.852-2.189C347.026,635.903,357.353,634.796,368.034,638.05z
			 M317.577,655.772c1.569-1.777,3.092-3.667,4.957-5.087c1.176-0.896,2.972-1.519,4.43-1.416
			c9.156,0.644,18.302,1.459,27.433,2.395c1.508,0.155,2.941,1.155,4.377,1.833c0.292,0.138,0.439,0.582,0.653,0.885
			c0.082,0.391,0.349,0.863,0.218,1.161c-1.275,2.897-2.383,5.91-4.048,8.572c-0.705,1.128-2.602,2.048-3.991,2.096
			c-2.766,0.095-5.609-0.228-8.323-0.823c-8.17-1.793-16.3-3.771-24.429-5.746C317.317,659.267,316.571,656.912,317.577,655.772z
			 M306.386,684.941c1.12-4.641,2.211-9.293,3.53-13.88c0.739-2.57,3.002-3.895,5.495-3.703c0.795,0.061,1.621-0.003,2.383,0.189
			c9.666,2.443,19.328,4.902,28.969,7.442c0.62,0.163,1.057,1.023,1.911,1.9c-1.465,4.363-4.004,8.407-6.409,12.501
			c-1.345,2.289-3.698,3.338-6.117,3.034c-9.089-1.141-18.143-2.553-27.203-3.912C307.623,688.315,306.092,686.159,306.386,684.941z
			 M303.361,700.352c0.036-1.386,1.82-3.063,3.269-2.981c7.972,0.45,15.943,0.936,23.907,1.5c1.168,0.083,2.304,0.642,3.45,0.996
			c1.329,0.412,2.618,2.569,2.092,3.768c-0.956,2.177-1.897,4.394-3.162,6.393c-1.119,1.768-3.068,2.573-5.153,2.577
			c-2.394,0.005-4.788-0.221-9.132-0.45c-0.449-0.003-2.858,0.11-5.247-0.061C303.32,711.374,303.091,710.91,303.361,700.352z
			 M311.094,719.957c3.551,0.026,7.106,0.274,10.649,0.55c2.043,0.159,3.672,2.481,3.057,4.201
			c-0.666,1.859-1.341,3.723-2.163,5.516c-2.949,6.433-5.395,13.104-8.643,19.652c-0.874-0.895-1.584-1.305-1.808-1.898
			c-2.804-7.406-4.771-15.042-5.91-22.876C305.808,721.884,307.62,719.931,311.094,719.957z"/>
		<path fill="#2B2B2B" d="M843.605,800.323c-3.158-5.063-7.178-9.579-9.665-15.077c-5.411-4.732-9.976-10.451-16.511-13.872
			c-2.835-1.484-5.641-3.086-8.241-4.942c-6.818-4.866-14.416-6.505-22.663-6.412c-6.85,0.078-13.554,1.102-20.298,2.053
			c-7.512,1.06-15.06,1.867-23.394,2.882c-3.178-4.411-5.678-8.018-8.331-11.509c-1.444-1.899-3.07-3.677-4.757-5.368
			c-1.628-1.633-4.839-1.205-6.403,0.761c-1.8,2.263-2.919,4.756-2.255,7.73c5.161,7.112,10.772,13.878,15.269,21.48
			c-0.173,8.071-0.52,16.078-0.476,24.083c0.067,12.08,1.89,23.779,6.354,35.2c7.363,18.837,20.224,32.298,37.691,41.98
			c7.926,4.393,16.582,6.225,25.21,7.224c9.886,1.145,19.985,0.807,29.977,0.557c7.997-0.2,15.946-1.205,23.814,1.254
			c2.365,0.739,4.923-1.515,4.796-3.987c-0.453-8.793-1.026-17.58-1.559-26.369C860.902,837.185,854.615,817.977,843.605,800.323z
			 M760.253,831.331c-0.332,2.834,0.54,6.219-2.438,8.346c-3.077-1.723-4.115-4.982-4.895-7.894
			c-1.846-6.894-3.342-13.918-4.395-20.977c-0.818-5.484-0.753-11.098-1.084-16.719c4.406,0.874,4.406,0.874,12.871,10.859
			c-0.024,5.381-0.068,10.513-0.063,15.644C760.253,824.175,760.667,827.8,760.253,831.331z M761.065,782.49
			c-2.155,1.35-4.23,0.679-5.954-1.963c-0.413-0.633-0.594-1.439-0.776-2.191c-0.077-0.316,0.12-0.698,0.284-1.496
			c6.136-1.572,12.22-4.366,19.423-3.882c-0.531,1.147-0.596,1.652-0.872,1.83C769.152,777.383,765.117,779.951,761.065,782.49z
			 M764.829,789.877c2.5-3.208,5.942-5.213,9.502-6.997c3.544-1.776,7.358-3.1,10.68-5.212c5.199-3.305,10.401-3.289,15.912-1.297
			c3.36,1.214,6.492,2.778,9.383,5.375c-1.078,0.973-1.806,2.152-2.788,2.429c-5.799,1.634-11.102,4.288-16.125,7.523
			c-4.728,3.044-10.029,4.737-15.219,6.686c-5.093,1.913-9.842-0.653-11.82-6.329C764.141,791.444,764.408,790.417,764.829,789.877z
			 M779.029,828.385c-0.116,7.49-0.135,15.446-0.426,23.391c-0.085,2.329-0.911,4.637-1.464,6.938
			c-0.24,0.996-1.986,1.304-2.987,0.674c-4.301-2.709-6.626-6.234-6.877-11.655c-0.481-10.375,0.724-20.625,1.31-30.924
			c0.063-1.113,1.873-1.898,2.725-1.231c1.245,0.974,2.494,1.946,3.7,2.967C777.904,820.995,779.622,823.979,779.029,828.385z
			 M781.014,811.257c-0.926-1.172-1.725-2.445-2.675-3.805c1.343-0.992,2.212-1.845,3.249-2.363
			c4.999-2.494,10.206-4.616,15.035-7.398c7.413-4.271,15.638-5.89,23.729-7.983c1.005-0.26,2.5,0.092,3.344,0.726
			c3.318,2.493,5.976,6.357,9.027,12.463c-5.273,1.745-10.523,3.49-15.777,5.22c-4.928,1.623-9.821,3.37-14.806,4.797
			c-3.438,0.984-6.995,1.571-10.518,2.236C787.341,815.958,783.742,814.71,781.014,811.257z M803.071,867.426
			c-0.23,1.465-1.047,2.838-1.687,4.498c-5.888-1.343-10.76-3.833-15.89-6.581c-0.157-1.566-0.644-3.152-0.409-4.623
			c1.196-7.466,1.618-14.949,1.3-22.504c-0.062-1.482,0.574-3.054,1.167-4.468c0.201-0.48,1.391-0.995,1.904-0.823
			c3.839,1.284,6.9,3.811,9.558,6.75c1.017,1.124,1.909,2.718,2.083,4.189C802.022,851.695,804.329,859.432,803.071,867.426z
			 M798.066,824.988c-0.227-0.294,0.313-1.743,0.78-1.925c4.072-1.579,8.163-3.141,12.336-4.42
			c7.253-2.223,14.57-4.236,21.856-6.353c0.765-0.222,1.499-0.551,3.419-1.268c1.774,3.495,3.184,6.272,4.765,9.386
			c-1.5,1.186-2.555,2.505-3.915,3.017c-8.575,3.23-17.325,5.917-26.269,7.959C804.95,832.773,801.327,829.205,798.066,824.988z
			 M814.865,875.34c-1.679-0.306-2.885-1.592-3.091-3.19c-0.908-7.025-1.2-14.088-1.264-21.52c3.702-0.404,4.921,1.395,6.44,2.522
			c2.215,1.642,4.374,3.379,6.391,5.254c0.817,0.759,1.31,1.942,1.74,3.017c0.436,1.09,0.662,2.273,0.892,3.432
			C828.204,876.088,825.351,877.253,814.865,875.34z M823.264,844.445c-2.162,0.107-3.627-1.321-4.982-2.798
			c-0.642-0.7-0.294-2.591,0.493-3.085c5.837-3.664,12.565-4.618,19.052-6.324c6.352-1.67,7.68,0.078,8.062,6.263
			c0.1,1.61-1.074,3.181-2.611,3.487c-2.33,0.465-4.666,0.929-7.021,1.228c-1.959,0.249-3.948,0.26-4.044,0.266
			C827.981,843.953,825.629,844.328,823.264,844.445z M839.923,877.313c-2.433,0.073-3.752-0.978-4.139-3.319
			c-0.193-1.168-0.147-2.385-0.117-3.578c0.026-1.007,1.815-2.217,2.579-1.804c3.172,1.717,6.17,3.61,7.393,7.264
			C843.921,877.533,841.864,877.255,839.923,877.313z M848.395,860.211c-4.74-0.809-9.224-2.232-12.711-5.818
			c-0.5-0.514-0.984-1.35-0.952-2.012c0.066-1.411,1.323-1.825,2.477-1.899c2.765-0.177,5.54-0.273,8.31-0.262
			c1.556,0.006,3.005,1.363,3.22,2.97C849.047,855.491,849.948,857.846,848.395,860.211z"/>
		<path fill="#2B2B2B" d="M545.448,794.138c-0.762-0.548-2.259-0.254-3.378-0.059c-0.737,0.128-1.47,0.655-2.064,1.168
			c-8.048,6.945-14.014,15.421-17.845,25.292c-1.433,3.693-2.674,7.582-2.383,11.701c0.199,5.441,3.267,11.147,7.15,13.197
			c3.241,1.71,6.706,2.794,10.371,2.646c1.503-0.061,3.198-0.636,4.41-1.519c2.305-1.679,4.095-4.01,4.401-6.927
			c0.415-3.969,0.664-7.981,0.594-11.968c-0.09-5.204-0.505-10.367,0.306-15.586c0.734-4.726,1.057-9.544,1.106-14.327
			C548.129,796.525,546.636,794.992,545.448,794.138z"/>
		<path fill="#2B2B2B" d="M642.125,773.228c2.022,2.953,4.545,5.582,6.977,8.232c3.5,3.814,8.272,4.578,13.089,5.064
			c0.745,0.075,1.595-0.215,2.301-0.542c3.562-1.647,6.443-6.034,5.981-9.665c-0.819-6.426-2.577-12.496-7.33-17.335
			c-9.208-9.375-20.976-12.636-33.465-14.256c-2.653-0.031-5.483,3.235-4.826,5.717c0.297,1.122,0.703,2.412,1.493,3.175
			C632.439,759.495,637.365,766.275,642.125,773.228z"/>
		<path fill="#2B2B2B" d="M476.191,682.4c-1.583,0.093-3.268-0.135-4.73,0.334c-7.22,2.314-14.407,4.822-20.222,9.943
			c-3.568,3.142-5.02,7.091-3.371,11.827c0.393,1.129,0.724,2.28,1.109,3.412c0.678,1.988,2.039,3.318,3.908,4.263
			c3.877,1.96,7.762,2.215,11.261-0.52c4.067-3.178,7.993-6.563,11.75-10.103c3.272-3.083,6.807-5.349,11.268-6.349
			c3.07-0.688,6.068-1.866,8.939-3.173c0.84-0.382,1.564-1.96,1.56-2.987c-0.005-1.023-0.851-2.162-1.596-3.018
			c-0.464-0.534-1.407-0.69-2.163-0.925C488.142,683.311,482.204,682.744,476.191,682.4z"/>
		<path fill="#2B2B2B" d="M327.11,270.847c2.269,0.635,4.624,0.597,6.626-0.895c0.494-0.368,0.853-1.246,0.836-1.878
			c-0.016-0.63-0.427-1.524-0.939-1.808c-0.969-0.537-2.134-0.72-3.152-1.03c-1.266,0.211-2.483,0.208-3.513,0.646
			c-0.982,0.418-1.853,1.101-1.88,2.536C325.057,269.973,326.137,270.575,327.11,270.847z"/>
		<path fill="#2B2B2B" d="M328.505,281.169c0.203,0.804,1.441,1.346,2.476,2.244c1.476-0.898,3.002-1.452,3.921-2.525
			c0.564-0.659,0.406-2.159,0.173-3.19c-0.125-0.549-1.044-1.163-1.7-1.304C330.684,275.817,327.841,278.534,328.505,281.169z"/>
		<path fill="#2B2B2B" d="M596.328,402.06c-2.071,0.022-3.516,1.445-3.672,3.618c-0.175,2.43,1.759,4.31,4.301,4.181
			c2.087-0.106,3.69-1.646,3.71-3.563C600.692,403.774,598.909,402.033,596.328,402.06z"/>
		<path fill="#2B2B2B" d="M606.151,409.313c-2.402,0.013-4.542,2.747-3.761,4.807c0.571,1.509,2.049,2.295,3.763,2.002
			c2.031-0.347,3.591-2.239,3.353-4.067C609.319,410.621,607.708,409.304,606.151,409.313z"/>
		<path fill="#2B2B2B" d="M630.064,374.018c-2.488-0.07-4.243,1.772-4.161,4.348c0.044,1.415,1.06,2.075,2.168,2.278
			c2.106,0.387,3.66-0.572,4.644-2.531C633.552,376.446,632.016,374.072,630.064,374.018z"/>
		<path fill="#2B2B2B" d="M615.624,396.264c-2.053,0.2-3.598,2.113-3.198,3.959c0.295,1.368,2.124,2.735,3.423,2.559
			c1.794-0.243,3.341-2.227,3.226-4.135C618.998,397.375,617.17,396.113,615.624,396.264z"/>
		<path fill="#2B2B2B" d="M636.627,395.674c-1.585-0.008-2.948,1.237-3.135,2.864c-0.183,1.588,0.819,2.966,2.463,3.389
			c1.614,0.415,3.26-0.518,3.572-2.024C639.946,397.879,638.441,395.684,636.627,395.674z"/>
		<path fill="#2B2B2B" d="M646.845,397.096c-1.627-0.432-4.026,1.295-4.501,3.045c0.11,0.374,0.155,0.785,0.341,1.117
			c0.79,1.408,2.586,1.86,4.055,1.059c1.733-0.945,2.511-2.478,1.759-3.824C648.163,397.892,647.485,397.266,646.845,397.096z"/>
		<path fill="#2B2B2B" d="M541.428,371.716c-2.367-0.271-4.481,1.762-4.57,4.396c-0.08,2.359,1.819,4.15,4.687,4.419
			c2.3,0.216,4.744-2.052,4.669-4.332C546.142,374.002,544.018,372.013,541.428,371.716z"/>
		<path fill="#2B2B2B" d="M432.508,246.382c-2.138,1.22-3.082,3.445-2.034,4.841c0.225,0.3,0.517,0.642,0.848,0.752
			c1.087,0.361,2.205,0.625,2.927,0.821c0.83-0.195,1.238-0.236,1.601-0.386c1.256-0.518,1.927-2.574,1.356-4.066
			C436.396,246.23,434.305,245.357,432.508,246.382z"/>
		<path fill="#2B2B2B" d="M491.031,510.281c0.594-1.02,0.007-3.313-1.065-4.287c-1.041-0.946-3.558-1.346-4.427-0.756
			c-3.051,2.073-5,4.972-6.293,8.366c-0.414,1.087,1.337,3.243,1.795,3.265c1.657-0.098,2.541,0.087,3.18-0.228
			C487.108,515.213,489.4,513.087,491.031,510.281z"/>
		<path fill="#2B2B2B" d="M617.65,132.28c2.415,0.018,4.502-2.274,3.911-4.702c-0.204-0.838-1.486-1.877-2.383-1.992
			c-2.109-0.269-3.762,1.3-4.094,3.352C614.843,130.422,616.261,132.269,617.65,132.28z"/>
		<path fill="#2B2B2B" d="M513.891,536.873c-1.968,0.31-3.323,2.926-1.928,4.563c1.77,2.076,2.485,3.813,0.899,6.263
			c-0.721,1.114-0.198,2.495,0.906,3.012c0.938,0.438,2.636,0.697,3.234,0.169c2.625-2.314,4.986-4.932,7.403-7.476
			c0.234-0.247,0.201-0.747,0.292-1.13c-0.119-0.379-0.12-0.891-0.375-1.117C521.352,538.514,518.237,536.189,513.891,536.873z"/>
		<path fill="#2B2B2B" d="M719.448,163.5c0.388-0.522,0.368-1.346,0.534-2.033c-0.711-2.259-3.556-2.907-5.639-1.285
			c-1.317,1.026-1.266,2.916,0.102,3.831C716.483,165.377,718.137,165.263,719.448,163.5z"/>
		<path fill="#2B2B2B" d="M723.732,175.293c1.637-0.096,3.121-1.391,3.127-2.729c0.008-1.898-1.59-3.677-3.46-3.851
			c-1.719-0.16-3.847,1.789-3.815,3.494C719.615,173.869,721.692,175.414,723.732,175.293z"/>
		<path fill="#2B2B2B" d="M544.619,271.961c0.2,1.558,1.865,2.493,3.457,2.254c1.346-0.202,3.464-2.157,3.039-2.98
			c-0.495-0.958-1.288-2.003-2.22-2.437c-1.291-0.601-2.791-0.753-4.22-1.058C544.617,269.152,544.442,270.579,544.619,271.961z"/>
		<path fill="#2B2B2B" d="M544.675,267.74c0.004-0.106,0.013-0.212,0.015-0.317c-0.053-0.013-0.1-0.014-0.153-0.026
			c-0.038,0.098-0.077,0.195-0.115,0.293C544.505,267.708,544.591,267.722,544.675,267.74z"/>
	</g>
</g>
</svg>
